<?xml version="1.0" encoding="UTF-8" standalone="no"?>
<!-- Created with Inkscape (http://www.inkscape.org/) -->

<svg
   xmlns:dc="http://purl.org/dc/elements/1.1/"
   xmlns:cc="http://creativecommons.org/ns#"
   xmlns:rdf="http://www.w3.org/1999/02/22-rdf-syntax-ns#"
   xmlns:svg="http://www.w3.org/2000/svg"
   xmlns="http://www.w3.org/2000/svg"
   xmlns:sodipodi="http://sodipodi.sourceforge.net/DTD/sodipodi-0.dtd"
   xmlns:inkscape="http://www.inkscape.org/namespaces/inkscape"
   width="19mm"
   height="27mm"
   viewBox="0 0 19 27"
   version="1.1"
   id="svg8"
   inkscape:version="0.92.2 (5c3e80d, 2017-08-06)"
   sodipodi:docname="buttom-panic.svg">
  <defs
     id="defs2" />
  <sodipodi:namedview
     id="base"
     pagecolor="#ffffff"
     bordercolor="#666666"
     borderopacity="1.0"
     inkscape:pageopacity="0.0"
     inkscape:pageshadow="2"
     inkscape:zoom="2.8"
     inkscape:cx="111.42227"
     inkscape:cy="69.263322"
     inkscape:document-units="mm"
     inkscape:current-layer="layer1"
     showgrid="false"
     inkscape:window-width="1280"
     inkscape:window-height="962"
     inkscape:window-x="1358"
     inkscape:window-y="-8"
     inkscape:window-maximized="1" />
  <metadata
     id="metadata5">
    <rdf:RDF>
      <cc:Work
         rdf:about="">
        <dc:format>image/svg+xml</dc:format>
        <dc:type
           rdf:resource="http://purl.org/dc/dcmitype/StillImage" />
        <dc:title></dc:title>
      </cc:Work>
    </rdf:RDF>
  </metadata>
  <g
     inkscape:label="Capa 1"
     inkscape:groupmode="layer"
     id="layer1"
     transform="translate(0,-270)">
    <g
       id="g4"
       transform="matrix(0.01772138,-2.1476427e-5,0.0015742,-0.01459919,-3.4671567,293.72055)">
      <path
         style="fill:#2e6c99"
         id="path2"
         d="m 673,1069 z m -125,487 q 48,4 94,0 61,-8 99,-20 7,-3 20.5,-7.5 13.5,-4.5 19.5,-7.5 54,-26 70,-37 6,-3 15.5,-10 9.5,-7 13.5,-9 41,-32 74,-69 l 1,-1 q 29,-34 47,-65 4,-5 9.5,-15.5 5.5,-10.5 7.5,-13.5 34,-69 44,-138 17,-91 -13,-201 0,-1 -0.5,-3 -0.5,-2 -1.5,-2 -3,-7 -8.5,-24 -5.5,-17 -10.5,-26 -21,-50 -57,-95 -5,-8 -16,-20 -11,-12 -15,-18 -14,-15 -27,-13 -16,10 -15,19 -1,6 8,19 28,29 43,52 18,24 31,50 v 1 q 23,45 33,86 4,12 6.5,26.5 2.5,14.5 3.5,24.5 1,10 2,27.5 1,17.5 2,25.5 -1,8 -2.5,29.5 -1.5,21.5 -3.5,37 -2,15.5 -5,29.5 -2,5 -7,23.5 -5,18.5 -10,28.5 -27,74 -81.5,134.5 Q 864,1435 792,1471 h -1 -1 q -7,5 -14,8 -16,7 -18,7 -8,4 -32,12 -5,1 -13,3 l 1,1 q -98,25 -187,9 -12,0 -34,-5.5 -22,-5.5 -25,-6.5 v -1 q -17,-4 -42,-15 l -1,-0.5 q 0,0 -2,-0.5 -35,-16 -61,-33 -5,-2 -10,-6 -50,-35 -87,-78 l -2,-2 q 0,-1 -1,-1 l -9,-12 -9,-12 q 0,0 -13,-19 -27,-41 -46,-95 -28,-86 -19,-174 10,-58 17,-81 2,-6 7,-20 5,-14 8,-21 5,-10 15,-32 30,-53 64,-89 h 1 q 15,-19 15,-27 -1,-6 -9,-17 -1,1 -2.5,1 H 279 v -2 q -6,0 -12,-1 v 2 q -5,1 -8.5,4 -3.5,3 -8,8 -4.5,5 -6.5,7 -30,36 -31,38 -29,40 -48,82 -4,8 -9.5,22.5 -5.5,14.5 -7.5,18.5 -3,9 -7,26 -4,17 -6,21 -6,19 -6,33 -12,81 4,164 2,6 5.5,21.5 3.5,15.5 7,27 3.5,11.5 8.5,21.5 3,11 12.5,30.5 9.5,19.5 12.5,25.5 31,52 58,82 4,4 16.5,18 12.5,14 20.5,20 15,15 53,42 v 1 q 11,7 16,9 18,12 33,19 v 2 h 1.5 2.5 q 22,12 82,33 31,8 86,17 z m -14,-182 q 56,9 92,4 48,-3 101,-29 21,-10 49,-30 4,-3 10.5,-9 6.5,-6 10.5,-9 7,-6 12,-13 h 1 q 3,-4 9,-10.5 6,-6.5 9,-10.5 3,-3 7.5,-10 4.5,-7 6.5,-10 27,-40 40,-94 12,-64 -1,-124 -10,-43 -36,-87 -23,-31 -25,-33 -1,-1 -4.5,-5.5 -3.5,-4.5 -5.5,-6 -2,-1.5 -5,-4.5 -3,-3 -6.5,-4 -3.5,-1 -7.5,-1 -18,3 -19,14 -5,12 9,24 8,10 17,20 20,29 26,46 28,60 22,123 -1,8 -2.5,16.5 -1.5,8.5 -4.5,20 -3,11.5 -4,16.5 -20,60 -65,102 -54,53 -132,66 -78,13 -146,-19 h -4 l -1,-4 q -2,1 -4,1 -29,-17 -39,-25 -25,-19 -39,-36 -42,-48 -55,-113 -13,-65 8,-125 14,-41 35,-65 3,-7 14,-18.5 11,-11.5 14,-19.5 0,-2 -2,-14 -12,-12 -20,-10 -6,1 -11.5,5 -5.5,4 -11.5,11 -6,7 -8,9 -24,35 -26,38 -3,4 -17,34 -1,3 -5,14 -7,20 -15,64 -6,58 12,114 18,56 55,100 17,20 29,29 3,3 9,8 6,5 10,8 3,2 11,8 50,32 103,44 z m 60,-163 q 0,1 1.5,2.5 l 1.5,1.5 -1,-4 q 27,2 53,-11 26,-13 43,-35 23,-28 24.5,-67 1.5,-39 -18.5,-69 -5,-7 -4,-11 3,-52 14,-166 6,-91 20,-203 40,25 94,17 20,-3 37,-14 17,-11 32,-29 4,-6 13,-19 59,24 106,1 1,-1 2,-1 h 1 q 5,-3 17,-10 22,-18 37,-46 3,-6 7,-15 35,-9 48,-13 41,-19 60,-38 42,-38 46,-97 -1,-13 4,-89 2,-98 -4,-151 -1,-22 -17,-111 -12,-48 -21,-74 -8,-21 -13,-34 -23,-46 -30,-79 -2,-4 -7.5,-21.5 -5.5,-17.5 -11.5,-26.5 -10,-4 -18,-4 -383,1 -441,1 -10,-1 -17,7.5 -7,8.5 -5,18.5 10,14 11,20 -3,11 -4,13 -12,18 -17,23 h -1 l -15,15 q -15,14 -31,30 -16,16 -35.5,36 -19.5,20 -30.5,31 -7,9 -28,30 -47,55 -64,76 -5,8 -16.5,22.5 Q 404,133 398,141 q -29,47 -59,89 -5,8 -33,52 -16,30 -30,55 -32,72 -39,93 -12,53 -9,76 8,31 17,39 22,26 80,30 v -2 q 31,1 70,-27 7,-5 15,-12 2,-3 9,-9 7,-6 10,-10 3,-3 9,-9.5 6,-6.5 9,-10.5 6,-8 18,-23 12,-15 18,-23 h 1 q 2,-2 5.5,-7 3.5,-5 4.5,-7 l 3,1 q 0,-5 1,-6 5,25 5.5,72.5 0.5,47.5 1.5,59.5 2,10 2.5,29.5 0.5,19.5 0.5,27.5 2,14 2.5,41 0.5,27 2.5,40 -1,20 1,59 2,39 1,58 1,21 1,59.5 V 947 q 0,0 1,60 -2,1 -5.5,2.5 -3.5,1.5 -4.5,1.5 -7,9 -12,15 -10,16 -17,40 -7,29 1.5,59.5 8.5,30.5 30.5,51.5 l 1,1 q 39,35 83,33 z m -38,-50 q 25,15 61,8 36,-7 50,-41 10,-24 6,-59 v 0 q -15,32 -97,26 -37,-2 -56,-26 v 0 q -7,21 -2,43 7,25 22,38 11,9 16,11 z"
         inkscape:connector-curvature="0" />
    </g>
  </g>
</svg>
