<?xml version="1.0" encoding="UTF-8" standalone="no"?>
<svg
   xmlns:dc="http://purl.org/dc/elements/1.1/"
   xmlns:cc="http://creativecommons.org/ns#"
   xmlns:rdf="http://www.w3.org/1999/02/22-rdf-syntax-ns#"
   xmlns:svg="http://www.w3.org/2000/svg"
   xmlns="http://www.w3.org/2000/svg"
   xmlns:sodipodi="http://sodipodi.sourceforge.net/DTD/sodipodi-0.dtd"
   xmlns:inkscape="http://www.inkscape.org/namespaces/inkscape"
   width="98"
   height="93"
   viewBox="0 0 98 93"
   version="1.1"
   id="svg15"
   sodipodi:docname="new_energy_plug.svg"
   inkscape:version="0.92.2 (5c3e80d, 2017-08-06)">
  <metadata
     id="metadata21">
    <rdf:RDF>
      <cc:Work
         rdf:about="">
        <dc:format>image/svg+xml</dc:format>
        <dc:type
           rdf:resource="http://purl.org/dc/dcmitype/StillImage" />
        <dc:title>new_energy_plug</dc:title>
      </cc:Work>
    </rdf:RDF>
  </metadata>
  <defs
     id="defs19" />
  <sodipodi:namedview
     pagecolor="#ffffff"
     bordercolor="#666666"
     borderopacity="1"
     objecttolerance="10"
     gridtolerance="10"
     guidetolerance="10"
     inkscape:pageopacity="0"
     inkscape:pageshadow="2"
     inkscape:window-width="640"
     inkscape:window-height="870"
     id="namedview17"
     showgrid="false"
     inkscape:zoom="2.6222222"
     inkscape:cx="45"
     inkscape:cy="45"
     inkscape:window-x="1686"
     inkscape:window-y="17"
     inkscape:window-maximized="0"
     inkscape:current-layer="svg15" />
  <!-- Generator: Sketch 52.2 (67145) - http://www.bohemiancoding.com/sketch -->
  <title
     id="title2">new_energy_plug</title>
  <desc
     id="desc4">Created with Sketch.</desc>
  <g
     id="new_energy_plug"
     style="fill:none;fill-rule:evenodd;stroke:none;stroke-width:1"
     transform="matrix(1.0620812,0,0,1.0620812,2.1639732,-0.93772176)">
    <g
       id="Group-6"
       transform="translate(5,5)"
       style="fill-rule:nonzero">
      <g
         id="Group-5"
         transform="translate(11,11)">
        <g
           id="noun_Plug_349076"
           transform="translate(12,24)"
           style="fill:#a5c0d3">
          <g
             id="Group">
            <path
               d="m 29,0 c -2.7575,0 -5,2.2425 -5,5 0,2.7575 2.2425,5 5,5 2.7575,0 5,-2.2425 5,-5 0,-2.7575 -2.2425,-5 -5,-5 z m 0,7.25 c -1.242,0 -2.25,-1.01025 -2.25,-2.25 0,-1.23975 1.008,-2.25 2.25,-2.25 1.242,0 2.25,1.01025 2.25,2.25 0,1.23975 -1.008,2.25 -2.25,2.25 z"
               id="Shape"
               inkscape:connector-curvature="0" />
            <path
               d="M 5,0 C 2.2425,0 0,2.2425 0,5 0,7.7575 2.2425,10 5,10 7.7575,10 10,7.7575 10,5 10,2.2425 7.7575,0 5,0 Z M 5,7.25 C 3.758,7.25 2.75,6.23975 2.75,5 2.75,3.76025 3.758,2.75 5,2.75 6.242,2.75 7.25,3.76025 7.25,5 7.25,6.23975 6.242,7.25 5,7.25 Z"
               id="Shape-Copy"
               inkscape:connector-curvature="0" />
          </g>
        </g>
        <circle
           id="Oval"
           cx="29"
           cy="29"
           r="29"
           style="stroke:#a5c0d3;stroke-width:2" />
      </g>
      <rect
         id="Rectangle-Copy-4"
         x="-1.5"
         y="-1.5"
         width="83"
         height="83"
         rx="4"
         style="stroke:#a5c0d3;stroke-width:3;stroke-linecap:round;stroke-linejoin:round" />
    </g>
  </g>
</svg>
