<?xml version="1.0" encoding="UTF-8" standalone="no"?>
<svg
   xmlns:dc="http://purl.org/dc/elements/1.1/"
   xmlns:cc="http://creativecommons.org/ns#"
   xmlns:rdf="http://www.w3.org/1999/02/22-rdf-syntax-ns#"
   xmlns:svg="http://www.w3.org/2000/svg"
   xmlns="http://www.w3.org/2000/svg"
   xmlns:sodipodi="http://sodipodi.sourceforge.net/DTD/sodipodi-0.dtd"
   xmlns:inkscape="http://www.inkscape.org/namespaces/inkscape"
   width="98"
   height="93"
   viewBox="0 0 98 93"
   version="1.1"
   id="svg10"
   sodipodi:docname="new_light_sensor.svg"
   inkscape:version="0.92.2 (5c3e80d, 2017-08-06)">
  <metadata
     id="metadata16">
    <rdf:RDF>
      <cc:Work
         rdf:about="">
        <dc:format>image/svg+xml</dc:format>
        <dc:type
           rdf:resource="http://purl.org/dc/dcmitype/StillImage" />
        <dc:title>new_light_sensor</dc:title>
      </cc:Work>
    </rdf:RDF>
  </metadata>
  <defs
     id="defs14" />
  <sodipodi:namedview
     pagecolor="#ffffff"
     bordercolor="#666666"
     borderopacity="1"
     objecttolerance="10"
     gridtolerance="10"
     guidetolerance="10"
     inkscape:pageopacity="0"
     inkscape:pageshadow="2"
     inkscape:window-width="640"
     inkscape:window-height="684"
     id="namedview12"
     showgrid="false"
     inkscape:zoom="2.6222222"
     inkscape:cx="45"
     inkscape:cy="45"
     inkscape:window-x="1584"
     inkscape:window-y="262"
     inkscape:window-maximized="0"
     inkscape:current-layer="svg10" />
  <!-- Generator: Sketch 52.2 (67145) - http://www.bohemiancoding.com/sketch -->
  <title
     id="title2">new_light_sensor</title>
  <desc
     id="desc4">Created with Sketch.</desc>
  <g
     id="new_light_sensor"
     style="fill:none;fill-rule:evenodd;stroke:none;stroke-width:1"
     transform="matrix(1.0666211,0,0,1.0666211,1.3255604,-0.12654801)">
    <g
       id="noun_Light_1570740"
       transform="translate(4,1)"
       style="fill:#a5c0d3;fill-rule:nonzero;stroke:#aec7d8;stroke-width:2">
      <g
         id="Group"
         transform="translate(0,0.63782)">
        <path
           d="m 41,0.36217 c -0.5523,0 -1,1.1844818 -1,1.6363636 V 8.5439882 C 40,8.99587 40.4477,9.36217 41,9.36217 c 0.5523,0 1,-0.3663 1,-0.8181818 V 1.9985336 C 42,1.5466518 41.5523,0.36217 41,0.36217 Z M 12.7188,6.08092 c -0.2561,0 -0.5235,0.086 -0.7188,0.28125 -0.3905,0.3905 -0.3905,1.047 0,1.4375 l 5.6562,5.65625 c 0.3905,0.3906 1.0471,0.3906 1.4376,0 0.3903,-0.3905 0.3903,-1.0469 0,-1.4375 L 13.4375,6.36217 C 13.2423,6.16687 12.9746,6.08092 12.7188,6.08092 Z m 56.5624,0 c -0.2559,0 -0.5234,0.086 -0.7187,0.28125 l -5.6563,5.65625 c -0.3903,0.3906 -0.3903,1.047 0,1.4375 0.3905,0.3906 1.0471,0.3906 1.4376,0 L 70,7.79967 c 0.3905,-0.3905 0.3905,-1.047 0,-1.4375 C 69.8047,6.16687 69.5373,6.08092 69.2812,6.08092 Z M 41,14.372922 c -12.7124,0 -25,9.33824 -25,22.551407 0,8.447428 3.4118,13.674773 6.6875,18.058938 C 25.9632,59.367431 29,62.872001 29,68.283589 v 11.349608 c 0,2.691938 2.3519,4.729003 5,4.729003 h 14 c 2.6481,0 5,-2.037065 5,-4.729003 V 68.283589 C 53,62.872001 56.0368,59.367431 59.3125,54.983267 62.5882,50.599102 66,45.371757 66,36.924329 66,23.711162 53.7124,14.372922 41,14.372922 Z m 0,1.891601 c 11.678,0 23,8.559043 23,20.659806 0,7.975378 -3.0882,12.649904 -6.3125,16.965308 -3.0546,4.088318 -6.3206,7.885046 -6.6563,13.448151 H 30.9688 C 30.6331,61.774683 27.3671,57.977955 24.3125,53.889637 21.0882,49.574233 18,44.899707 18,36.924329 18,24.823566 29.322,16.264523 41,16.264523 Z m -5.9062,6.160147 c -0.1395,0.009 -0.2952,0.0474 -0.4376,0.0937 -5.8541,2.20756 -10.2552,7.35432 -11.375,13.65622 -0.09,0.5236 0.289,1.0663 0.8126,1.1563 0.5235,0.09 1.0974,-0.2889 1.1874,-0.8125 0.9957,-5.6031 4.8624,-10.1642 10.0626,-12.12502 0.4984,-0.10812 0.8689,-0.65377 0.7812,-1.15625 -0.2323,-0.65801 -0.6129,-0.84012 -1.0312,-0.8125 z M 1,34.36219 c -0.5523,0 -1,0.4477 -1,1 0,0.5523 0.4477,1 1,1 h 8 c 0.5523,0 1,-0.4477 1,-1 0,-0.5523 -0.4477,-1 -1,-1 z m 72,0 c -0.5523,0 -1,0.4477 -1,1 0,0.5523 0.4477,1 1,1 h 8 c 0.5523,0 1,-0.4477 1,-1 0,-0.5523 -0.4477,-1 -1,-1 z M 31,68.3622 h 20 v 6 H 31 Z m 0,8 h 20 v 3 c 0,1.75 -1.4271,3 -3,3 H 34 c -1.5729,0 -3,-1.25 -3,-3 z"
           id="Shape"
           inkscape:connector-curvature="0" />
      </g>
    </g>
  </g>
</svg>
