<?xml version="1.0" encoding="UTF-8" standalone="no"?>
<svg
   xmlns:dc="http://purl.org/dc/elements/1.1/"
   xmlns:cc="http://creativecommons.org/ns#"
   xmlns:rdf="http://www.w3.org/1999/02/22-rdf-syntax-ns#"
   xmlns:svg="http://www.w3.org/2000/svg"
   xmlns="http://www.w3.org/2000/svg"
   xmlns:sodipodi="http://sodipodi.sourceforge.net/DTD/sodipodi-0.dtd"
   xmlns:inkscape="http://www.inkscape.org/namespaces/inkscape"
   width="98"
   height="93"
   viewBox="0 0 98 93"
   version="1.1"
   id="svg13"
   sodipodi:docname="new_energy_switch.svg"
   inkscape:version="0.92.2 (5c3e80d, 2017-08-06)">
  <metadata
     id="metadata19">
    <rdf:RDF>
      <cc:Work
         rdf:about="">
        <dc:format>image/svg+xml</dc:format>
        <dc:type
           rdf:resource="http://purl.org/dc/dcmitype/StillImage" />
        <dc:title>new_energy_switch</dc:title>
      </cc:Work>
    </rdf:RDF>
  </metadata>
  <defs
     id="defs17" />
  <sodipodi:namedview
     pagecolor="#ffffff"
     bordercolor="#666666"
     borderopacity="1"
     objecttolerance="10"
     gridtolerance="10"
     guidetolerance="10"
     inkscape:pageopacity="0"
     inkscape:pageshadow="2"
     inkscape:window-width="640"
     inkscape:window-height="783"
     id="namedview15"
     showgrid="false"
     inkscape:zoom="2.6222222"
     inkscape:cx="45"
     inkscape:cy="45"
     inkscape:window-x="1693"
     inkscape:window-y="46"
     inkscape:window-maximized="0"
     inkscape:current-layer="svg13" />
  <!-- Generator: Sketch 52.2 (67145) - http://www.bohemiancoding.com/sketch -->
  <title
     id="title2">new_energy_switch</title>
  <desc
     id="desc4">Created with Sketch.</desc>
  <g
     id="new_energy_switch"
     style="fill:none;fill-rule:evenodd;stroke:none;stroke-width:1"
     transform="matrix(1.0709499,0,0,1.0709499,1.3835238,-1.3368152)">
    <rect
       id="Rectangle"
       x="3.5"
       y="3.5"
       width="83"
       height="83"
       rx="4"
       style="fill-rule:nonzero;stroke:#a5c0d3;stroke-width:3;stroke-linecap:round;stroke-linejoin:round" />
    <path
       d="m 70,42 c -2.7575,0 -5,2.2425 -5,5 0,2.7575 2.2425,5 5,5 2.7575,0 5,-2.2425 5,-5 0,-2.7575 -2.2425,-5 -5,-5 z m 0,7.25 c -1.242,0 -2.25,-1.01025 -2.25,-2.25 0,-1.23975 1.008,-2.25 2.25,-2.25 1.242,0 2.25,1.01025 2.25,2.25 0,1.23975 -1.008,2.25 -2.25,2.25 z"
       id="Shape-Copy-3"
       inkscape:connector-curvature="0"
       style="fill:#a5c0d3;fill-rule:nonzero" />
    <path
       d="m 22,42 c -2.7575,0 -5,2.2425 -5,5 0,2.7575 2.2425,5 5,5 2.7575,0 5,-2.2425 5,-5 0,-2.7575 -2.2425,-5 -5,-5 z m 0,7.25 c -1.242,0 -2.25,-1.01025 -2.25,-2.25 0,-1.23975 1.008,-2.25 2.25,-2.25 1.242,0 2.25,1.01025 2.25,2.25 0,1.23975 -1.008,2.25 -2.25,2.25 z"
       id="Shape-Copy-4"
       inkscape:connector-curvature="0"
       style="fill:#a5c0d3;fill-rule:nonzero" />
    <rect
       id="Rectangle-Copy"
       x="36"
       y="29"
       width="19"
       height="35"
       rx="2"
       style="fill-rule:nonzero;stroke:#a5c0d3;stroke-width:2;stroke-linecap:round;stroke-linejoin:round" />
    <rect
       id="rect10"
       x="36"
       y="46"
       width="19"
       height="18"
       rx="2"
       style="fill-rule:nonzero;stroke:#a5c0d3;stroke-width:2;stroke-linecap:round;stroke-linejoin:round" />
  </g>
</svg>
