<?xml version="1.0" encoding="UTF-8" standalone="no"?>
<svg
   xmlns:dc="http://purl.org/dc/elements/1.1/"
   xmlns:cc="http://creativecommons.org/ns#"
   xmlns:rdf="http://www.w3.org/1999/02/22-rdf-syntax-ns#"
   xmlns:svg="http://www.w3.org/2000/svg"
   xmlns="http://www.w3.org/2000/svg"
   xmlns:sodipodi="http://sodipodi.sourceforge.net/DTD/sodipodi-0.dtd"
   xmlns:inkscape="http://www.inkscape.org/namespaces/inkscape"
   width="98"
   height="93"
   viewBox="0 0 98 93"
   version="1.1"
   id="svg17"
   sodipodi:docname="new_temperature.svg"
   inkscape:version="0.92.2 (5c3e80d, 2017-08-06)">
  <metadata
     id="metadata23">
    <rdf:RDF>
      <cc:Work
         rdf:about="">
        <dc:format>image/svg+xml</dc:format>
        <dc:type
           rdf:resource="http://purl.org/dc/dcmitype/StillImage" />
        <dc:title>new_temperature</dc:title>
      </cc:Work>
    </rdf:RDF>
  </metadata>
  <defs
     id="defs21" />
  <sodipodi:namedview
     pagecolor="#ffffff"
     bordercolor="#666666"
     borderopacity="1"
     objecttolerance="10"
     gridtolerance="10"
     guidetolerance="10"
     inkscape:pageopacity="0"
     inkscape:pageshadow="2"
     inkscape:window-width="1280"
     inkscape:window-height="962"
     id="namedview19"
     showgrid="false"
     inkscape:zoom="2.6222222"
     inkscape:cx="45"
     inkscape:cy="45"
     inkscape:window-x="1358"
     inkscape:window-y="-8"
     inkscape:window-maximized="1"
     inkscape:current-layer="svg17" />
  <!-- Generator: Sketch 52.2 (67145) - http://www.bohemiancoding.com/sketch -->
  <title
     id="title2">new_temperature</title>
  <desc
     id="desc4">Created with Sketch.</desc>
  <g
     id="new_temperature"
     style="fill:none;fill-rule:evenodd;stroke:none;stroke-width:1"
     transform="matrix(1.0620812,0,0,1.0620812,1.7826172,-1.3190776)">
    <g
       id="noun_Temperature_980877"
       transform="translate(32,11)"
       style="fill:#a5c0d3">
      <g
         id="Group">
        <path
           d="M 18.723913,48.228125 V 7.475 c 0,-3.953125 -3.228261,-7.1875 -7.173913,-7.1875 -3.9456522,0 -7.173913,3.234375 -7.173913,7.1875 v 40.753125 c -2.6543479,2.15625 -4.30434787,5.4625 -4.30434787,8.9125 0,6.325 5.16521737,11.5 11.47826087,11.5 6.313043,0 11.406522,-5.175 11.406522,-11.5 0,-3.45 -1.578261,-6.75625 -4.232609,-8.9125 z M 11.55,66.196875 c -4.95,0 -8.9673913,-4.025 -8.9673913,-8.984375 0,-3.1625 1.65,-6.0375 4.3043478,-7.690625 v -41.975 c 0,-2.5875 2.0804348,-4.74375 4.7347825,-4.74375 2.582609,0 4.734783,2.084375 4.734783,4.74375 v 41.975 C 18.93913,51.175 20.66087,54.05 20.66087,57.2125 20.517391,62.171875 16.5,66.196875 11.55,66.196875 Z"
           id="Shape"
           inkscape:connector-curvature="0"
           style="fill-rule:nonzero" />
        <path
           d="M 13.773913,51.03125 V 34.571875 c 0,-1.221875 -1.004348,-2.228125 -2.223913,-2.228125 -1.219565,0 -2.223913,1.00625 -2.223913,2.228125 V 51.03125 c -2.5108696,0.934375 -4.3043479,3.30625 -4.3043479,6.109375 0,3.59375 2.9413044,6.540625 6.5282609,6.540625 3.586957,0 6.528261,-2.946875 6.528261,-6.540625 0,-2.803125 -1.793478,-5.175 -4.304348,-6.109375 z"
           id="Path"
           inkscape:connector-curvature="0" />
        <rect
           id="Rectangle"
           x="23.234783"
           y="19.934376"
           width="11.693479"
           height="2.4437499" />
        <rect
           id="rect9"
           x="23.234783"
           y="28.05625"
           width="5.5239129"
           height="2.4437499" />
        <rect
           id="rect11"
           x="23.234783"
           y="36.178123"
           width="11.693479"
           height="2.4437499" />
      </g>
    </g>
    <rect
       id="Rectangle-Copy-2"
       x="3.5"
       y="3.5"
       width="83"
       height="83"
       rx="4"
       style="fill-rule:nonzero;stroke:#a5c0d3;stroke-width:3;stroke-linecap:round;stroke-linejoin:round" />
  </g>
</svg>
