<?xml version="1.0" encoding="UTF-8"?>
<svg width="22px" height="22px" viewBox="0 0 22 22" version="1.1" xmlns="http://www.w3.org/2000/svg" xmlns:xlink="http://www.w3.org/1999/xlink">
    <!-- Generator: Sketch 52.2 (67145) - http://www.bohemiancoding.com/sketch -->
    <title>ico_nodered copy</title>
    <desc>Created with Sketch.</desc>
    <g id="07.-Extras" stroke="none" stroke-width="1" fill="none" fill-rule="evenodd">
        <g id="ico_nodered-copy" transform="translate(0.000000, -1.000000)" fill="#2E6C99" fill-rule="nonzero" stroke="#2E6C99" stroke-width="0.2">
            <g id="noun_nodes_253955">
                <g transform="translate(11.000000, 12.000000) scale(1, -1) rotate(-90.000000) translate(-11.000000, -12.000000) translate(-0.500000, 1.000000)">
                    <path d="M7.70111732,4.63363363 C7.70111732,2.48485371 9.39550727,0.75 11.5,0.75 C13.6044927,0.75 15.2988827,2.48485371 15.2988827,4.63363363 C15.2988827,5.65096369 14.9105537,6.61503287 14.2375924,7.32760786 L18.0992929,12.3190837 C18.4873985,12.1006921 18.9521431,11.9812312 19.4189944,11.9812312 C20.9955542,11.9812312 22.25,13.2656345 22.25,14.8738739 C22.25,16.4821133 20.9955542,17.7665165 19.4189944,17.7665165 C17.8520648,17.7665165 16.5879888,16.4620621 16.5879888,14.8738739 C16.5879888,14.1952322 16.8261683,13.5600967 17.2492533,13.0335263 L13.3776692,8.00116158 C12.9891471,8.22975902 12.5329564,8.38258229 12.0432961,8.45735536 L12.0432961,15.5310925 C13.3590718,15.7915145 14.3310056,16.9661154 14.3310056,18.3573574 C14.3310056,19.9655967 13.0765598,21.25 11.5,21.25 C9.93307034,21.25 8.66899441,19.9455456 8.66899441,18.3573574 C8.66899441,16.9661154 9.64092816,15.7915145 10.9567039,15.5310925 L10.9567039,8.45741677 C10.4747501,8.38191196 10.0197127,8.21730926 9.59495343,7.96859395 L5.72489719,12.9989727 C6.1631623,13.5196154 6.41201117,14.1809083 6.41201117,14.8738739 C6.41201117,16.4821133 5.15756536,17.7665165 3.58100559,17.7665165 C2.00444581,17.7665165 0.75,16.4821133 0.75,14.8738739 C0.75,13.2755281 2.02406229,11.9812312 3.58100559,11.9812312 C4.03172626,11.9812312 4.47423974,12.0930446 4.86555313,12.2965821 L8.73564752,7.29425663 C8.07015063,6.56618206 7.70111732,5.63177926 7.70111732,4.63363363 Z M4.98897765,12.9541637 L4.79689598,12.8331368 C4.43895003,12.607602 4.01382534,12.4812312 3.58100559,12.4812312 C2.30198355,12.4812312 1.25,13.5499223 1.25,14.8738739 C1.25,16.2085774 2.28326368,17.2665165 3.58100559,17.2665165 C4.87874749,17.2665165 5.91201117,16.2085774 5.91201117,14.8738739 C5.91201117,14.2393387 5.65950414,13.6360853 5.2205912,13.1866906 L5.06902248,13.0315023 L9.47880574,7.29957523 L9.67299111,7.42822522 C10.1506277,7.74466487 10.6704923,7.93376414 11.2309669,7.98841741 L11.4567039,8.01042958 L11.4567039,15.9673437 L11.2355965,15.9930696 C10.0621433,16.129601 9.16899441,17.142059 9.16899441,18.3573574 C9.16899441,19.6728602 10.2127921,20.75 11.5,20.75 C12.7977419,20.75 13.8310056,19.6920609 13.8310056,18.3573574 C13.8310056,17.142059 12.9378567,16.129601 11.7644035,15.9930696 L11.5432961,15.9673437 L11.5432961,8.01152726 L11.7678322,7.98853744 C12.3512948,7.92879781 12.8838602,7.74942819 13.2918515,7.4622357 L13.487791,7.3243103 L17.8974029,13.0560146 L17.7556124,13.2108697 C17.3286034,13.6772232 17.0879888,14.2544111 17.0879888,14.8738739 C17.0879888,16.1893767 18.1317865,17.2665165 19.4189944,17.2665165 C20.7167363,17.2665165 21.75,16.2085774 21.75,14.8738739 C21.75,13.5391703 20.7167363,12.4812312 19.4189944,12.4812312 C18.9687674,12.4812312 18.5213845,12.6172198 18.185076,12.8556089 L17.9894781,12.9942568 L13.5682363,7.27954079 L13.7339401,7.12401823 C14.4055083,6.49371278 14.7988827,5.59121279 14.7988827,4.63363363 C14.7988827,2.75838953 13.3256749,1.25 11.5,1.25 C9.67432514,1.25 8.20111732,2.75838953 8.20111732,4.63363363 C8.20111732,5.57139368 8.57291208,6.44255057 9.24073556,7.09783187 L9.39936308,7.25348026 L4.98897765,12.9541637 Z M5.29608939,14.8738739 C5.29608939,13.8995307 4.52679218,13.1118619 3.58100559,13.1118619 C2.63521899,13.1118619 1.86592179,13.8995307 1.86592179,14.8738739 C1.86592179,15.8482171 2.63521899,16.6358859 3.58100559,16.6358859 C4.52679218,16.6358859 5.29608939,15.8482171 5.29608939,14.8738739 Z M5.79608939,14.8738739 C5.79608939,16.1217529 4.80561005,17.1358859 3.58100559,17.1358859 C2.35640112,17.1358859 1.36592179,16.1217529 1.36592179,14.8738739 C1.36592179,13.6259949 2.35640112,12.6118619 3.58100559,12.6118619 C4.80561005,12.6118619 5.79608939,13.6259949 5.79608939,14.8738739 Z M19.4189944,13.0818318 C18.4732078,13.0818318 17.7039106,13.8695006 17.7039106,14.8438438 C17.7039106,15.818187 18.4732078,16.6058559 19.4189944,16.6058559 C20.364781,16.6058559 21.1340782,15.818187 21.1340782,14.8438438 C21.1340782,13.8695006 20.364781,13.0818318 19.4189944,13.0818318 Z M19.4189944,12.5818318 C20.6435989,12.5818318 21.6340782,13.5959648 21.6340782,14.8438438 C21.6340782,16.0917229 20.6435989,17.1058559 19.4189944,17.1058559 C18.1943899,17.1058559 17.2039106,16.0917229 17.2039106,14.8438438 C17.2039106,13.5959648 18.1943899,12.5818318 19.4189944,12.5818318 Z M13.2150838,18.3573574 C13.2150838,17.3830142 12.4457866,16.5953453 11.5,16.5953453 C10.5542134,16.5953453 9.7849162,17.3830142 9.7849162,18.3573574 C9.7849162,19.3317006 10.5542134,20.1193694 11.5,20.1193694 C12.4457866,20.1193694 13.2150838,19.3317006 13.2150838,18.3573574 Z M13.7150838,18.3573574 C13.7150838,19.6052364 12.7246045,20.6193694 11.5,20.6193694 C10.2753955,20.6193694 9.2849162,19.6052364 9.2849162,18.3573574 C9.2849162,17.1094783 10.2753955,16.0953453 11.5,16.0953453 C12.7246045,16.0953453 13.7150838,17.1094783 13.7150838,18.3573574 Z M11.5,1.82057057 C9.99695084,1.82057057 8.7877095,3.05868983 8.7877095,4.6036036 C8.7877095,6.14851738 9.99695084,7.38663664 11.5,7.38663664 C13.0030492,7.38663664 14.2122905,6.14851738 14.2122905,4.6036036 C14.2122905,3.05868983 13.0030492,1.82057057 11.5,1.82057057 Z M11.5,1.32057057 C13.281867,1.32057057 14.7122905,2.78515401 14.7122905,4.6036036 C14.7122905,6.42205319 13.281867,7.88663664 11.5,7.88663664 C9.71813296,7.88663664 8.2877095,6.42205319 8.2877095,4.6036036 C8.2877095,2.78515401 9.71813296,1.32057057 11.5,1.32057057 Z" id="Shape"></path>
                </g>
            </g>
        </g>
    </g>
</svg>