<?xml version="1.0" encoding="UTF-8" standalone="no"?>
<svg
   xmlns:dc="http://purl.org/dc/elements/1.1/"
   xmlns:cc="http://creativecommons.org/ns#"
   xmlns:rdf="http://www.w3.org/1999/02/22-rdf-syntax-ns#"
   xmlns:svg="http://www.w3.org/2000/svg"
   xmlns="http://www.w3.org/2000/svg"
   id="svg13"
   version="1.1"
   viewBox="0 0 22 22"
   height="22px"
   width="22px">
  <metadata
     id="metadata19">
    <rdf:RDF>
      <cc:Work
         rdf:about="">
        <dc:format>image/svg+xml</dc:format>
        <dc:type
           rdf:resource="http://purl.org/dc/dcmitype/StillImage" />
        <dc:title>ico_zigbee copy</dc:title>
      </cc:Work>
    </rdf:RDF>
  </metadata>
  <defs
     id="defs17" />
  <!-- Generator: Sketch 52.2 (67145) - http://www.bohemiancoding.com/sketch -->
  <title
     id="title2">ico_zigbee copy</title>
  <desc
     id="desc4">Created with Sketch.</desc>
  <circle
     r="10"
     cy="11"
     cx="11"
     id="Oval"
     style="fill:none;fill-rule:nonzero;stroke:none;stroke-width:1" />
  <path
     style="fill:#2E6C99;fill-rule:nonzero;stroke:none;stroke-width:1;fill-opacity:1"
     id="Fill-1"
     d="M 4.0584446,4.369817 C 3.5854909,4.4254818 3.3098607,3.8510745 3.6491996,3.5169594 5.5944886,1.6016169 8.2669989,0.5 11.121984,0.5 16.847244,0.5 21.5,4.9001672 21.5,10.341683 c 0,1.915942 -0.581086,3.751811 -1.655465,5.330028 -0.07987,0.11732 -0.205827,0.195171 -0.346477,0.214144 -4.788074,0.645876 -8.63117,0.740141 -11.5157315,0.493218 C 7.5553328,16.342522 7.369184,15.820874 7.6765743,15.522259 L 17.417804,6.0591305 C 17.394006,5.8068782 17.296856,5.4973817 17.079732,5.1938925 16.695283,4.6565215 16.008453,4.2683005 14.916635,4.1123399 12.375437,3.8117157 8.762133,3.8162116 4.0584446,4.369817 Z M 17.893027,4.6120407 c 0.417026,0.5829058 0.548301,1.1816653 0.529027,1.6592767 -0.0011,0.022375 -0.0011,0.022375 -0.0019,0.033906 -0.0094,0.1214513 -0.06275,0.2353055 -0.150122,0.3201835 L 9.1783581,15.457522 c 2.6191889,0.131414 5.9422959,-0.0019 9.9615969,-0.532734 C 20.024594,13.552952 20.5,11.980323 20.5,10.341683 20.5,5.4653186 16.307055,1.5 11.121984,1.5 9.0982695,1.5 7.178779,2.1084106 5.5972997,3.1995487 9.5846948,2.8171837 12.726971,2.846124 15.034271,3.1192601 c 0.0069,8.504e-4 0.0088,0.0011 0.01069,0.00136 1.364834,0.1948501 2.297699,0.7221384 2.848062,1.4914198 z" />
  <path
     style="fill:#2E6C99;fill-rule:nonzero;stroke:none;stroke-width:1;fill-opacity:1"
     id="Fill-2"
     d="m 18.438828,17.218095 c 0.460147,-0.05672 0.743009,0.489104 0.431348,0.832353 C 16.89469,20.226158 14.032559,21.5 10.955294,21.5 5.18679,21.5 0.5,17.052957 0.5,11.554103 0.5,9.4539161 1.188486,7.4512132 2.4473093,5.7765555 2.5280334,5.6691653 2.648578,5.5987786 2.7817774,5.5812578 7.4765633,4.9637136 11.248941,4.8782997 14.092533,5.1224745 c 0.426565,0.036628 0.6128,0.5574849 0.306164,0.8562729 L 4.5766491,15.54942 c 0.023573,0.256697 0.1217525,0.572 0.3422022,0.881053 0.3882844,0.544344 1.0814711,0.937335 2.1817373,1.095008 2.6427246,0.314027 6.4152744,0.299463 11.3382394,-0.307386 z M 4.1047413,17.011184 c -0.4194789,-0.588076 -0.551491,-1.191983 -0.5321168,-1.673489 0.00107,-0.02249 0.00107,-0.02249 0.0019,-0.03402 0.00932,-0.121232 0.062503,-0.234912 0.1495867,-0.319767 L 12.89907,6.0437605 C 10.320736,5.9131143 7.0611505,6.0377657 3.1235311,6.5451998 2.0715805,8.0137576 1.5,9.743274 1.5,11.554103 1.5,16.488588 5.7276732,20.5 10.955294,20.5 c 2.279556,0 4.425317,-0.768028 6.108378,-2.118956 -4.281345,0.445767 -7.6374568,0.427993 -10.0801436,0.137588 -0.00556,-6.79e-4 -0.00785,-9.78e-4 -0.010126,-0.0013 -1.3752812,-0.196934 -2.3146792,-0.72951 -2.8686611,-1.506148 z" />
</svg>
