<?xml version="1.0" encoding="UTF-8"?>
<svg width="16px" height="16px" viewBox="0 0 16 15" version="1.1" xmlns="http://www.w3.org/2000/svg" xmlns:xlink="http://www.w3.org/1999/xlink">
    <!-- Generator: Sketch 52.2 (67145) - http://www.bohemiancoding.com/sketch -->
    <title>icon_senales</title>
    <desc>Created with Sketch.</desc>
    <g id="icon_senales" stroke="none" stroke-width="1" fill="#6E767D" fill-rule="evenodd">
        <path d="M2.26360023,14.4900542 C3.03603399,14.4900542 3.66221527,13.8261727 3.66221527,13.0072333 C3.66221527,12.1882939 3.03603399,11.5244123 2.26360023,11.5244123 C1.49116647,11.5244123 0.86498519,12.1882939 0.86498519,13.0072333 C0.865827954,13.8258023 1.49151583,14.4891607 2.26360023,14.4900542 Z" id="Path" fill="#6E767D" fill-rule="nonzero"></path>
        <path d="M1.49854219,7.84501801 C1.59877176,7.74835955 1.7347228,7.69407313 1.87646881,7.69410869 C5.12156859,7.69764469 7.75132726,10.2337071 7.75499391,13.3631864 C7.75499391,13.6478178 7.51572978,13.8785572 7.22058253,13.8785572 C6.92543528,13.8785572 6.68617116,13.6478178 6.68617116,13.3631864 C6.68317893,10.8027002 4.53155366,8.72773572 1.87646881,8.7248501 C1.7347228,8.72488565 1.59877176,8.67059924 1.49854219,8.57394078 C1.39831262,8.47728232 1.34202057,8.3461751 1.34205744,8.20947939 C1.34202057,8.07278369 1.39831262,7.94167647 1.49854219,7.84501801 Z" id="Path" fill="#6E767D" fill-rule="nonzero"></path>
        <path d="M0.600000018,4.67326546 C0.59996315,4.53656975 0.656255204,4.40546254 0.75648477,4.30880407 C0.856714337,4.21214561 0.992665383,4.1578592 1.13441139,4.15789475 C6.73956965,4.16403511 11.2818602,8.54448738 11.2882275,13.9499382 C11.2882275,14.2345695 11.0489633,14.4653089 10.7538161,14.4653089 C10.4586688,14.4653089 10.2194047,14.2345695 10.2194047,13.9499382 C10.2138089,9.11344172 6.14959496,5.19403262 1.13441139,5.18863616 C0.992665383,5.18867172 0.856714337,5.13438531 0.75648477,5.03772684 C0.656255204,4.94106838 0.59996315,4.80996117 0.600000018,4.67326546 Z" id="Path" fill="#6E767D" fill-rule="nonzero"></path>
        <path d="M0.742057439,0.542495479 C0.742020571,0.405799773 0.798312625,0.274692559 0.898542191,0.178034095 C0.998771758,0.0813756306 1.1347228,0.0270892192 1.27646881,0.027124774 C9.241688,0.0358638225 15.6965139,6.26070927 15.7055759,13.9421338 C15.7055759,14.2267652 15.4663117,14.4575045 15.1711645,14.4575045 C14.8760172,14.4575045 14.6367531,14.2267652 14.6367531,13.9421338 C14.6284567,6.82966597 8.65171087,1.065867 1.27646881,1.05786618 C1.1347228,1.05790174 0.998771758,1.00361533 0.898542191,0.906956864 C0.798312625,0.8102984 0.742020571,0.679191185 0.742057439,0.542495479 Z" id="Path" fill="#6E767D" fill-rule="nonzero"></path>
    </g>
</svg>