<?xml version="1.0" encoding="UTF-8" standalone="no"?>
<svg
   xmlns:dc="http://purl.org/dc/elements/1.1/"
   xmlns:cc="http://creativecommons.org/ns#"
   xmlns:rdf="http://www.w3.org/1999/02/22-rdf-syntax-ns#"
   xmlns:svg="http://www.w3.org/2000/svg"
   xmlns="http://www.w3.org/2000/svg"
   xmlns:sodipodi="http://sodipodi.sourceforge.net/DTD/sodipodi-0.dtd"
   xmlns:inkscape="http://www.inkscape.org/namespaces/inkscape"
   width="98"
   height="98"
   viewBox="0 0 98 98"
   version="1.1"
   id="svg28"
   sodipodi:docname="node1_intel_v1.svg"
   inkscape:version="0.92.3 (2405546, 2018-03-11)">
  <metadata
     id="metadata34">
    <rdf:RDF>
      <cc:Work
         rdf:about="">
        <dc:format>image/svg+xml</dc:format>
        <dc:type
           rdf:resource="http://purl.org/dc/dcmitype/StillImage" />
        <dc:title>new_hub</dc:title>
      </cc:Work>
    </rdf:RDF>
  </metadata>
  <defs
     id="defs32" />
  <sodipodi:namedview
     pagecolor="#ffffff"
     bordercolor="#666666"
     borderopacity="1"
     objecttolerance="10"
     gridtolerance="10"
     guidetolerance="10"
     inkscape:pageopacity="0"
     inkscape:pageshadow="2"
     inkscape:window-width="1920"
     inkscape:window-height="1027"
     id="namedview30"
     showgrid="false"
     inkscape:zoom="2.6222222"
     inkscape:cx="45"
     inkscape:cy="45"
     inkscape:window-x="1912"
     inkscape:window-y="-8"
     inkscape:window-maximized="1"
     inkscape:current-layer="svg28" />
  <!-- Generator: Sketch 52.2 (67145) - http://www.bohemiancoding.com/sketch -->
  <title
     id="title2">new_hub</title>
  <desc
     id="desc4">Created with Sketch.</desc>
  <g
     id="new_hub"
     style="fill:none;fill-rule:evenodd;stroke:none;stroke-width:1"
     transform="matrix(1.1507686,0,0,1.1507686,-2.2083169,-2.5981475)">
    <g
       id="noun_wave_127952-copy-2"
       transform="rotate(-45,50.520815,-55.441125)"
       style="fill:#a5c0d3">
      <path
         d="m 2.6994857,5.2014154 c -0.5898857,-0.5823231 -1.5454286,-0.5823231 -2.13531427,0 -0.58988572,0.5823231 -0.58988572,1.5256154 0,2.1079384 2.94377147,2.9060312 2.94377147,7.6336612 0,10.5396922 -0.58988572,0.582323 -0.58988572,1.525615 0,2.107939 0.58988567,0.582323 1.54542857,0.582323 2.13531427,0 4.1209714,-4.068139 4.1209714,-10.6874311 0,-14.7555696 z"
         id="Path"
         inkscape:connector-curvature="0" />
      <path
         d="m 6.9701143,0.98553846 c -0.5898857,-0.58232308 -1.5454286,-0.58232308 -2.1353143,0 -0.5898857,0.58232304 -0.5898857,1.52561544 0,2.10793844 5.298686,5.2307539 5.298686,13.7412001 0,18.9714461 -0.5898857,0.582323 -0.5898857,1.525615 0,2.107938 0.5898857,0.582324 1.5454286,0.582324 2.1353143,0 C 13.446,17.78 13.446,7.3784 6.9701143,0.98553846 Z"
         id="path7"
         inkscape:connector-curvature="0" />
    </g>
    <g
       id="noun_wave_127952-copy-5"
       transform="matrix(-0.70710678,-0.70710678,-0.70710678,0.70710678,38.16295,19.485281)"
       style="fill:#a5c0d3">
      <path
         d="m 2.6994857,5.2014154 c -0.5898857,-0.5823231 -1.5454286,-0.5823231 -2.13531427,0 -0.58988572,0.5823231 -0.58988572,1.5256154 0,2.1079384 2.94377147,2.9060312 2.94377147,7.6336612 0,10.5396922 -0.58988572,0.582323 -0.58988572,1.525615 0,2.107939 0.58988567,0.582323 1.54542857,0.582323 2.13531427,0 4.1209714,-4.068139 4.1209714,-10.6874311 0,-14.7555696 z"
         id="path10"
         inkscape:connector-curvature="0" />
      <path
         d="m 6.9701143,0.98553846 c -0.5898857,-0.58232308 -1.5454286,-0.58232308 -2.1353143,0 -0.5898857,0.58232304 -0.5898857,1.52561544 0,2.10793844 5.298686,5.2307539 5.298686,13.7412001 0,18.9714461 -0.5898857,0.582323 -0.5898857,1.525615 0,2.107938 0.5898857,0.582324 1.5454286,0.582324 2.1353143,0 C 13.446,17.78 13.446,7.3784 6.9701143,0.98553846 Z"
         id="path12"
         inkscape:connector-curvature="0" />
    </g>
    <g
       id="noun_wave_127952-copy-3"
       transform="rotate(135,3.9436507,43.035534)"
       style="fill:#a5c0d3">
      <path
         d="m 2.6994857,5.2014154 c -0.5898857,-0.5823231 -1.5454286,-0.5823231 -2.13531427,0 -0.58988572,0.5823231 -0.58988572,1.5256154 0,2.1079384 2.94377147,2.9060312 2.94377147,7.6336612 0,10.5396922 -0.58988572,0.582323 -0.58988572,1.525615 0,2.107939 0.58988567,0.582323 1.54542857,0.582323 2.13531427,0 4.1209714,-4.068139 4.1209714,-10.6874311 0,-14.7555696 z"
         id="path15"
         inkscape:connector-curvature="0" />
      <path
         d="m 6.9701143,0.98553846 c -0.5898857,-0.58232308 -1.5454286,-0.58232308 -2.1353143,0 -0.5898857,0.58232304 -0.5898857,1.52561544 0,2.10793844 5.298686,5.2307539 5.298686,13.7412001 0,18.9714461 -0.5898857,0.582323 -0.5898857,1.525615 0,2.107938 0.5898857,0.582324 1.5454286,0.582324 2.1353143,0 C 13.446,17.78 13.446,7.3784 6.9701143,0.98553846 Z"
         id="path17"
         inkscape:connector-curvature="0" />
    </g>
    <g
       id="noun_wave_127952-copy-4"
       transform="matrix(0.70710678,0.70710678,0.70710678,-0.70710678,54,70.677669)"
       style="fill:#a5c0d3">
      <path
         d="m 2.6994857,5.2014154 c -0.5898857,-0.5823231 -1.5454286,-0.5823231 -2.13531427,0 -0.58988572,0.5823231 -0.58988572,1.5256154 0,2.1079384 2.94377147,2.9060312 2.94377147,7.6336612 0,10.5396922 -0.58988572,0.582323 -0.58988572,1.525615 0,2.107939 0.58988567,0.582323 1.54542857,0.582323 2.13531427,0 4.1209714,-4.068139 4.1209714,-10.6874311 0,-14.7555696 z"
         id="path20"
         inkscape:connector-curvature="0" />
      <path
         d="m 6.9701143,0.98553846 c -0.5898857,-0.58232308 -1.5454286,-0.58232308 -2.1353143,0 -0.5898857,0.58232304 -0.5898857,1.52561544 0,2.10793844 5.298686,5.2307539 5.298686,13.7412001 0,18.9714461 -0.5898857,0.582323 -0.5898857,1.525615 0,2.107938 0.5898857,0.582324 1.5454286,0.582324 2.1353143,0 C 13.446,17.78 13.446,7.3784 6.9701143,0.98553846 Z"
         id="path22"
         inkscape:connector-curvature="0" />
    </g>
    <rect
       id="Rectangle-Copy-3"
       x="3.5"
       y="3.5"
       width="83"
       height="83"
       rx="4"
       style="fill-rule:nonzero;stroke:#a5c0d3;stroke-width:3;stroke-linecap:round;stroke-linejoin:round" />
    <rect
       id="Rectangle-Copy-8"
       transform="matrix(-1,0,0,1,90,0)"
       x="35.5"
       y="35.5"
       width="19"
       height="19"
       rx="4"
       style="fill-rule:nonzero;stroke:#a5c0d3;stroke-width:3;stroke-linecap:round;stroke-linejoin:round" />
  </g>
</svg>
