<svg width="329px" height="69px" viewBox="0 0 329 69" version="1.1" xmlns="http://www.w3.org/2000/svg" xmlns:xlink="http://www.w3.org/1999/xlink">
        <defs>
          <polygon id="path-1" points="0.7682 0.182 25.706 0.182 25.706 68.8328 0.7682 68.8328"></polygon>
          <polygon id="path-3" points="0 0.4357 37.8865 0.4357 37.8865 53.8667 0 53.8667"></polygon>
        </defs>
        <g id="2.-Style" stroke="white" stroke-width="1" fill="white" fill-rule="evenodd">
          <g id="Layer" transform="translate(-697.000000, -195.000000)">
            <g id="Logo" transform="translate(697.000000, 194.000000)">
              <path d="M239.4329,51.7233 C239.4329,53.1513 239.2349,54.6693 238.8479,56.2743 C238.4989,57.7263 237.8449,59.0543 236.8359,60.3193 C235.8659,61.5183 234.4979,62.5243 232.7589,63.3043 C231.0419,64.0833 228.7899,64.4753 225.8559,64.4753 C222.9859,64.4753 220.6729,64.0803 218.9669,63.2973 C217.2499,62.5313 215.8679,61.5183 214.8909,60.3293 C213.8599,59.0163 213.2089,57.6883 212.8789,56.2673 C212.4799,54.5973 212.2899,53.1063 212.2899,51.7233 L212.2899,34.1013 C212.2899,30.0253 213.4749,26.8503 215.8309,24.6423 C218.1479,22.4523 221.5279,21.3353 225.8559,21.3143 C230.1909,21.3353 233.5819,22.4523 235.9089,24.6423 C238.2509,26.8573 239.4329,30.0283 239.4329,34.1013 L239.4329,51.7233 Z M239.6049,21.0963 C238.0719,19.6163 236.0639,18.4033 233.6289,17.4943 C228.9309,15.8343 222.8529,15.8243 218.0909,17.4983 C215.6409,18.4033 213.6939,19.5853 212.1139,21.0893 C210.4799,22.6353 209.1899,24.5383 208.2779,26.7633 C207.3799,28.9403 206.9379,31.3973 206.9379,34.1013 L206.9379,51.7233 C206.9379,57.3873 208.6479,61.8413 212.0319,64.9673 C215.3469,68.0593 220.0119,69.6363 225.8559,69.6503 C231.7139,69.6363 236.3659,68.0593 239.7129,64.9673 C239.7449,64.9293 239.7809,64.8883 239.8309,64.8463 L239.8309,65.0853 L239.8599,64.9923 L241.5159,69.0543 L244.8059,69.0543 L244.8059,34.1013 C244.8059,31.3873 244.3639,28.9193 243.4659,26.7603 C242.5469,24.5483 241.2459,22.6423 239.6049,21.0963 Z" id="Fill-1" fill="white"></path>
              <g id="Group-5" transform="translate(303.000000, 0.818000)">
                <mask id="mask-2" fill="white">
                  <use xlink:href="#path-1"></use>
                </mask>
                <g id="Clip-4"></g>
                <path d="M23.7552,60.8218 C21.9162,62.5758 19.1472,63.8758 15.0702,63.8758 C11.9782,63.8758 9.6612,63.0058 8.1742,61.2938 C6.6582,59.5288 5.9152,56.5758 5.9152,52.2468 L5.9152,20.8428 L22.4372,20.8428 C22.4872,20.8428 22.5202,20.8258 22.5632,20.8188 L22.5632,16.0768 C22.5202,16.0768 22.4872,16.0568 22.4372,16.0568 L5.9152,16.0568 L5.9152,0.1818 L0.7682,0.1818 L0.7682,52.5068 C0.7682,57.9588 2.0002,62.0838 4.4142,64.7528 C6.8562,67.4598 10.4412,68.8328 15.0702,68.8328 C19.6102,68.8328 23.1802,67.6988 25.7062,65.4668 L23.7552,60.8218 Z" id="Fill-3" fill="white" mask="url(#mask-2)"></path>
              </g>
              <path d="M280.4143,64.3644 L280.4143,16.8744 L261.0943,16.8744 C261.0733,16.8744 261.0513,16.8814 261.0443,16.8814 L261.0443,21.5604 C261.0513,21.5604 261.0733,21.5644 261.0943,21.5644 L275.1603,21.5644 L275.1603,64.3644 L261.0943,64.3644 C261.0733,64.3644 261.0513,64.3784 261.0443,64.3784 L261.0443,69.0504 C261.0513,69.0504 261.0733,69.0544 261.0943,69.0544 L290.9563,69.0544 C291.1323,69.0544 291.2583,69.0094 291.4123,68.9884 L291.4123,64.4334 C291.2583,64.4204 291.1323,64.3644 290.9563,64.3644 L280.4143,64.3644 Z" id="Fill-6" fill="white"></path>
              <path d="M183.1072,41.6056 L166.7822,37.1166 C164.7962,36.4796 163.3522,35.5576 162.3642,34.3026 C161.3662,33.0266 160.8882,31.7166 160.8882,30.2956 C160.8882,28.3056 161.2622,26.7736 162.0272,25.6406 C162.7772,24.4686 163.7652,23.5816 164.9512,22.9816 C166.1932,22.3336 167.5262,21.9076 169.0132,21.7166 C170.4852,21.4746 172.0082,21.3596 173.5172,21.3596 C177.7262,21.3596 181.1282,22.1676 183.6312,23.7516 C186.0522,25.2456 187.3312,27.7516 187.4492,31.1756 C187.4492,31.2276 187.4712,31.2656 187.4712,31.3216 L192.5712,31.3216 C192.5712,31.2556 192.5962,31.2136 192.5962,31.1476 C192.4492,26.1636 190.6422,22.3786 187.2052,19.8906 C183.8072,17.5056 179.2742,16.2926 173.7392,16.2926 C171.3692,16.2926 169.1392,16.5136 166.9372,16.9926 C164.7962,17.4666 162.8752,18.2786 161.2182,19.4046 C159.5092,20.5656 158.1552,22.0396 157.2352,23.7656 C156.2262,25.5576 155.7272,27.7516 155.7272,30.2956 C155.7272,33.1166 156.5452,35.5606 158.1802,37.5746 C159.8362,39.6436 162.1022,41.0266 165.0842,41.7826 L181.4652,46.4056 C183.5562,47.0096 185.1112,48.0636 186.1922,49.5706 C187.2232,51.1446 187.7442,52.8186 187.7442,54.5066 C187.7442,56.7246 187.3162,58.4716 186.4722,59.7266 C185.6032,61.0366 184.5582,61.9936 183.2902,62.6456 C181.7532,63.3766 180.3192,63.7896 178.7862,63.9446 C174.3572,64.3956 171.1532,64.3126 168.1442,63.7196 C166.4882,63.3656 165.0692,62.8146 163.8302,62.0386 C162.6702,61.2866 161.7112,60.2846 161.0432,59.1236 C160.3502,57.9556 160.0122,56.4686 160.0122,54.5966 C160.0122,54.4996 159.9692,54.4236 159.9692,54.3296 L154.7722,54.3296 C154.7572,54.4306 154.7172,54.5066 154.7172,54.6066 C154.8222,59.6406 156.6532,63.4286 160.1522,65.8896 C163.6182,68.3266 168.1652,69.5736 173.7392,69.5736 C176.3222,69.5736 178.8002,69.3346 181.0992,68.8766 C183.4442,68.4056 185.4632,67.6016 187.2802,66.4126 C189.0762,65.1576 190.4452,63.6056 191.4902,61.6646 C192.5062,59.6706 193.0202,57.2546 193.0202,54.5066 C193.0202,51.2936 192.1472,48.5376 190.4232,46.3156 C188.7672,44.0636 186.3002,42.4756 183.1072,41.6056" id="Fill-8" fill="white"></path>
              <path d="M135.8923,40.5968 L108.7493,40.5968 L108.7493,34.1008 C108.7493,30.0248 109.9343,26.8498 112.2903,24.6418 C114.6073,22.4518 117.9873,21.3358 122.3153,21.3148 C126.6503,21.3358 130.0413,22.4518 132.3693,24.6418 C134.7103,26.8568 135.8923,30.0288 135.8923,34.1008 L135.8923,40.5968 Z M136.0643,21.0968 C134.5313,19.6168 132.5233,18.4028 130.0883,17.4948 C125.3903,15.8348 119.3123,15.8248 114.5503,17.4978 C112.1003,18.4028 110.1533,19.5848 108.5733,21.0898 C106.9393,22.6358 105.6493,24.5378 104.7373,26.7638 C103.8393,28.9398 103.3973,31.3978 103.3973,34.1008 L103.3973,51.7228 C103.3973,57.3868 105.1073,61.8408 108.4913,64.9678 C111.8063,68.0588 116.4723,69.6368 122.3153,69.6508 C123.9323,69.6468 125.4543,69.5198 126.8843,69.2788 L126.8843,69.2808 C126.9243,69.2738 126.9623,69.2658 127.0013,69.2598 C127.1423,69.2348 127.2813,69.2088 127.4193,69.1828 C127.5713,69.1538 127.7213,69.1228 127.8703,69.0908 C127.9793,69.0678 128.0893,69.0448 128.1963,69.0208 C128.4553,68.9608 128.7123,68.8978 128.9653,68.8308 C128.9963,68.8218 129.0273,68.8128 129.0593,68.8038 C129.3013,68.7378 129.5393,68.6678 129.7743,68.5938 C129.8173,68.5798 129.8603,68.5668 129.9033,68.5528 C130.1563,68.4718 130.4053,68.3868 130.6503,68.2968 L130.6573,68.2938 C132.2673,67.7028 133.7163,66.9188 134.9983,65.9438 C135.0143,65.9318 135.0293,65.9208 135.0443,65.9088 C135.2233,65.7718 135.3983,65.6318 135.5703,65.4878 C135.5993,65.4638 135.6283,65.4428 135.6563,65.4188 L135.6553,65.4178 C135.8273,65.2708 135.9963,65.1218 136.1623,64.9678 C137.6863,63.5588 138.8673,61.8788 139.7083,59.9418 L135.0623,57.1408 C134.7103,58.1888 134.1683,59.1928 133.4103,60.1868 L133.4043,60.1738 C133.3673,60.2218 133.3333,60.2708 133.2953,60.3198 C132.7623,60.9788 132.1033,61.5768 131.3343,62.1148 C130.7023,62.5538 130.0003,62.9508 129.2263,63.2968 C129.1033,63.3528 128.9743,63.4048 128.8443,63.4568 C128.7863,63.4808 128.7293,63.5058 128.6693,63.5288 C128.5193,63.5858 128.3633,63.6398 128.2053,63.6918 C128.1653,63.7048 128.1253,63.7178 128.0853,63.7308 C127.7063,63.8508 127.3063,63.9558 126.8843,64.0478 L126.8843,64.0508 C125.5843,64.3318 124.0753,64.4748 122.3153,64.4748 C119.4453,64.4748 117.1323,64.0798 115.4263,63.2968 C113.7093,62.5308 112.3273,61.5188 111.3503,60.3298 C110.3193,59.0158 109.6683,57.6888 109.3383,56.2668 C108.9393,54.5968 108.7493,53.1058 108.7493,51.7228 L108.7493,46.0118 L141.2653,46.0118 L141.2653,42.9648 L141.2653,40.5968 L141.2653,34.1008 C141.2653,31.3878 140.8243,28.9198 139.9263,26.7598 C139.0063,24.5488 137.7063,22.6418 136.0643,21.0968 Z" id="Fill-10" fill="white"></path>
              <path d="M70.7966,16.2999 C69.3916,16.2999 67.9406,16.4939 66.3696,16.8859 C64.9576,17.1879 63.4696,17.7009 61.9456,18.4289 C60.5376,19.0989 59.2296,19.9479 58.1296,20.9499 C57.7196,21.2939 57.3496,21.6609 57.0116,22.0459 L57.0046,22.0809 L56.9906,22.0639 C56.9836,22.0709 56.9756,22.0739 56.9756,22.0809 L56.9756,22.0359 L54.2556,16.8889 L51.8046,16.8889 L51.8046,69.2479 L56.9756,69.2479 L56.9756,33.9659 C56.9756,32.0059 57.3066,30.3419 58.0036,28.8709 C58.7406,27.2719 59.6636,25.9649 60.8466,24.8729 C62.0646,23.7529 63.4906,22.9129 65.1906,22.3059 C66.8866,21.6929 68.7766,21.3839 70.7966,21.3839 C73.5426,21.3839 75.8416,21.7859 77.6136,22.5669 C79.3596,23.3849 80.7516,24.3829 81.7246,25.5559 C82.6806,26.7419 83.3746,28.1179 83.7656,29.6129 C84.1466,31.2949 84.3306,32.7519 84.3306,34.1869 L84.3306,69.2479 L89.4796,69.2479 L89.4796,34.1869 C89.4796,28.4859 87.8226,24.0509 84.5456,20.9779 C81.2616,17.8669 76.6366,16.2999 70.7966,16.2999" id="Fill-12" fill="white"></path>
              <g id="Group-16" transform="translate(0.000000, 15.818000)">
                <mask id="mask-4" fill="white">
                  <use xlink:href="#path-3"></use>
                </mask>
                <g id="Clip-15"></g>
                <path d="M32.5325,35.9307 C32.5325,37.3147 32.3425,38.8057 31.9435,40.4767 C31.6125,41.8987 30.9625,43.2267 29.9305,44.5417 C28.9535,45.7307 27.5695,46.7437 25.8515,47.5107 C24.1455,48.2937 21.8305,48.6897 18.9595,48.6897 C18.9535,48.6897 18.9495,48.6887 18.9435,48.6887 C18.9375,48.6887 18.9325,48.6897 18.9275,48.6897 C16.0555,48.6897 13.7415,48.2937 12.0345,47.5107 C10.3175,46.7437 8.9335,45.7307 7.9565,44.5417 C6.9245,43.2267 6.2745,41.8987 5.9435,40.4767 C5.5445,38.8057 5.3545,37.3147 5.3545,35.9307 L5.3545,18.2997 C5.3545,14.2217 6.5405,11.0447 8.8975,8.8357 C11.2155,6.6447 14.5965,5.5277 18.9275,5.5067 C18.9325,5.5067 18.9375,5.5077 18.9435,5.5077 C18.9495,5.5077 18.9535,5.5067 18.9595,5.5067 C23.2895,5.5277 26.6715,6.6447 28.9895,8.8357 C31.3465,11.0447 32.5325,14.2217 32.5325,18.2997 L32.5325,35.9307 Z M32.7085,5.2817 C31.1275,3.7767 29.1795,2.5937 26.7285,1.6887 C24.3495,0.8527 21.6425,0.4367 18.9435,0.4357 C16.2435,0.4367 13.5365,0.8527 11.1575,1.6887 C8.7075,2.5937 6.7595,3.7767 5.1785,5.2817 C3.5435,6.8277 2.2535,8.7317 1.3405,10.9587 C0.4425,13.1367 -0.0005,15.5957 -0.0005,18.2997 L-0.0005,35.9307 C-0.0005,41.5977 1.7105,46.0537 5.0955,49.1817 C8.4125,52.2747 13.0805,53.8527 18.9275,53.8667 L18.9435,53.8667 L18.9595,53.8667 C24.8065,53.8527 29.4745,52.2747 32.7915,49.1817 C36.1765,46.0537 37.8865,41.5977 37.8865,35.9307 L37.8865,18.2997 C37.8865,15.5957 37.4445,13.1367 36.5465,10.9587 C35.6335,8.7317 34.3435,6.8277 32.7085,5.2817 Z" id="Fill-14" fill="white" mask="url(#mask-4)"></path>
              </g>
            </g>
          </g>
        </g>
      </svg>