<?xml version="1.0" encoding="UTF-8" standalone="no"?>
<svg
   xmlns:dc="http://purl.org/dc/elements/1.1/"
   xmlns:cc="http://creativecommons.org/ns#"
   xmlns:rdf="http://www.w3.org/1999/02/22-rdf-syntax-ns#"
   xmlns:svg="http://www.w3.org/2000/svg"
   xmlns="http://www.w3.org/2000/svg"
   xmlns:sodipodi="http://sodipodi.sourceforge.net/DTD/sodipodi-0.dtd"
   xmlns:inkscape="http://www.inkscape.org/namespaces/inkscape"
   width="98"
   height="93"
   viewBox="0 0 98 93"
   version="1.1"
   id="svg20"
   sodipodi:docname="security-alarm.svg"
   inkscape:version="0.92.2 (5c3e80d, 2017-08-06)">
  <metadata
     id="metadata26">
    <rdf:RDF>
      <cc:Work
         rdf:about="">
        <dc:format>image/svg+xml</dc:format>
        <dc:type
           rdf:resource="http://purl.org/dc/dcmitype/StillImage" />
        <dc:title>new_alarm</dc:title>
      </cc:Work>
    </rdf:RDF>
  </metadata>
  <defs
     id="defs24" />
  <sodipodi:namedview
     pagecolor="#ffffff"
     bordercolor="#666666"
     borderopacity="1"
     objecttolerance="10"
     gridtolerance="10"
     guidetolerance="10"
     inkscape:pageopacity="0"
     inkscape:pageshadow="2"
     inkscape:window-width="1280"
     inkscape:window-height="962"
     id="namedview22"
     showgrid="false"
     inkscape:zoom="5.2444444"
     inkscape:cx="42.709225"
     inkscape:cy="59.682155"
     inkscape:window-x="1358"
     inkscape:window-y="-8"
     inkscape:window-maximized="1"
     inkscape:current-layer="svg20" />
  <!-- Generator: Sketch 52.2 (67145) - http://www.bohemiancoding.com/sketch -->
  <title
     id="title2">new_alarm</title>
  <desc
     id="desc4">Created with Sketch.</desc>
  <g
     id="new_alarm"
     style="fill:none;fill-rule:evenodd;stroke:none;stroke-width:1"
     transform="matrix(1.1002079,0,0,1.1002079,-0.45684677,-1.1358399)">
    <g
       id="noun_Alarm_133786"
       transform="translate(0,5)"
       style="fill:#a5c0d3">
      <path
         d="m 19.6054,52.573871 h -2.0141 c -0.9108,0 -1.65,0.735935 -1.65,1.645161 V 74.354839 C 15.9413,75.264065 16.6805,76 17.5913,76 h 54.8185 c 0.9108,0 1.65,-0.735935 1.65,-1.645161 V 54.219032 c 0,-0.909226 -0.7392,-1.645161 -1.65,-1.645161 H 70.3682 L 70.3671,43.55071 c 0.0165,-0.388258 0.0286,-0.77871 0.0286,-1.170258 0,-11.681742 -7.9376,-21.79071 -19.3017,-24.582 -3.9908,-0.981613 -8.1994,-0.981613 -12.1858,0 C 27.543,20.590839 19.6054,30.69871 19.6054,42.381548 Z M 70.7598,73.412452 H 19.2413 V 55.86529 h 2.0141 47.4617 2.0416 V 73.412452 Z M 22.9054,42.381548 c 0,-10.163806 6.9047,-18.958838 16.7926,-21.387096 3.4727,-0.854388 7.1291,-0.855484 10.6073,0 9.8857,2.428258 16.7915,11.222193 16.7915,21.387096 0,0.343291 -0.0121,0.685484 -0.0275,1.096775 v 9.095548 H 22.9054 Z"
         id="Shape"
         inkscape:connector-curvature="0"
         style="fill-rule:nonzero" />
      <path
         d="m 49.670149,26.038207 c -0.723666,-0.173123 -1.452727,0.258367 -1.630722,0.964923 -0.177995,0.707434 0.263397,1.421019 0.987063,1.595022 6.639755,1.598537 11.276615,7.390707 11.276615,14.083648 0,0.728525 0.604105,1.3182 1.348448,1.3182 C 62.395896,44 63,43.410325 63,42.6818 62.999101,34.7726 57.519011,27.928506 49.670149,26.038207 Z"
         id="Path"
         inkscape:connector-curvature="0" />
      <path
         d="m 45.0011,10.621161 c 0.9108,0 1.65,-0.7359352 1.65,-1.645161 V 1.9423871 c 0,-0.9092258 -0.7392,-1.64516129 -1.65,-1.64516129 -0.9108,0 -1.65,0.73593549 -1.65,1.64516129 V 8.976 c 0,0.9092258 0.7392,1.645161 1.65,1.645161 z"
         id="path8"
         inkscape:connector-curvature="0" />
      <path
         d="m 2.6455,42.360452 h 9.3225 c 0.9108,0 1.65,-0.735936 1.65,-1.645162 0,-0.909226 -0.7392,-1.645161 -1.65,-1.645161 H 2.6455 c -0.9108,0 -1.65,0.735935 -1.65,1.645161 0,0.909226 0.7392,1.645162 1.65,1.645162 z"
         id="path10"
         inkscape:connector-curvature="0" />
      <path
         d="m 77.2367,41.360452 h 10.1167 c 0.9108,0 1.65,-0.735936 1.65,-1.645162 0,-0.909226 -0.7392,-1.645161 -1.65,-1.645161 H 77.2367 c -0.9108,0 -1.65,0.735935 -1.65,1.645161 0,0.909226 0.7392,1.645162 1.65,1.645162 z"
         id="path12"
         inkscape:connector-curvature="0" />
      <path
         d="m 67.9725,19.056452 c 0.4224,0 0.8448,-0.160129 1.1671,-0.481484 l 6.0841,-6.066258 c 0.6446,-0.641613 0.6446,-1.684645 0,-2.326258 -0.6446,-0.6427101 -1.6885,-0.6427101 -2.3331,0 l -6.0841,6.066258 c -0.6446,0.641613 -0.6446,1.684645 0,2.326258 0.3212,0.320258 0.7436,0.481484 1.166,0.481484 z"
         id="path14"
         inkscape:connector-curvature="0" />
      <path
         d="m 20.0662,19.576064 c 0.3223,0.321355 0.7447,0.481484 1.1671,0.481484 0.4224,0 0.8448,-0.160129 1.1671,-0.481484 0.6446,-0.641612 0.6446,-1.683548 0,-2.326258 l -5.6969,-5.680193 c -0.6446,-0.64271 -1.6885,-0.64271 -2.3331,0 -0.6446,0.641613 -0.6446,1.683548 0,2.326258 z"
         id="path16"
         inkscape:connector-curvature="0" />
    </g>
  </g>
</svg>
