<?xml version="1.0" encoding="UTF-8" standalone="no"?>
<svg
   xmlns:dc="http://purl.org/dc/elements/1.1/"
   xmlns:cc="http://creativecommons.org/ns#"
   xmlns:rdf="http://www.w3.org/1999/02/22-rdf-syntax-ns#"
   xmlns:svg="http://www.w3.org/2000/svg"
   xmlns="http://www.w3.org/2000/svg"
   xmlns:sodipodi="http://sodipodi.sourceforge.net/DTD/sodipodi-0.dtd"
   xmlns:inkscape="http://www.inkscape.org/namespaces/inkscape"
   width="98"
   height="93"
   viewBox="0 0 98 93"
   version="1.1"
   id="svg30"
   sodipodi:docname="new_smoke_sensor.svg"
   inkscape:version="0.92.2 (5c3e80d, 2017-08-06)">
  <metadata
     id="metadata36">
    <rdf:RDF>
      <cc:Work
         rdf:about="">
        <dc:format>image/svg+xml</dc:format>
        <dc:type
           rdf:resource="http://purl.org/dc/dcmitype/StillImage" />
        <dc:title>new_smoke_sensor</dc:title>
      </cc:Work>
    </rdf:RDF>
  </metadata>
  <defs
     id="defs34" />
  <sodipodi:namedview
     pagecolor="#ffffff"
     bordercolor="#666666"
     borderopacity="1"
     objecttolerance="10"
     gridtolerance="10"
     guidetolerance="10"
     inkscape:pageopacity="0"
     inkscape:pageshadow="2"
     inkscape:window-width="640"
     inkscape:window-height="916"
     id="namedview32"
     showgrid="false"
     inkscape:zoom="2.6222222"
     inkscape:cx="45"
     inkscape:cy="45"
     inkscape:window-x="1734"
     inkscape:window-y="26"
     inkscape:window-maximized="0"
     inkscape:current-layer="svg30" />
  <!-- Generator: Sketch 52.2 (67145) - http://www.bohemiancoding.com/sketch -->
  <title
     id="title2">new_smoke_sensor</title>
  <desc
     id="desc4">Created with Sketch.</desc>
  <g
     id="new_smoke_sensor"
     style="fill:none;fill-rule:evenodd;stroke:none;stroke-width:1"
     transform="matrix(1.1470768,0,0,1.1470768,-1.8059134,-4.5262524)">
    <path
       d="M 44.78,84.38 C 22.82,84.38 5,66.56 5,44.69 5,22.82 22.82,5 44.78,5 c 21.96,0 39.69,17.82 39.69,39.69 0,21.87 -17.82,39.69 -39.69,39.69 z m 0,-76.68 C 24.35,7.7 7.7,24.26 7.7,44.69 7.7,65.12 24.26,81.68 44.69,81.68 65.12,81.68 81.77,65.12 81.77,44.69 81.77,24.26 65.12,7.7 44.78,7.7 Z"
       id="Shape-Copy-5"
       inkscape:connector-curvature="0"
       style="fill:#a5c0d3;fill-rule:nonzero;stroke:#a5c0d3" />
    <g
       id="noun_Smoke-Alarm_1125652"
       transform="translate(24,24)"
       style="stroke:#a5c0d3;stroke-width:2.20000005;stroke-linecap:round;stroke-linejoin:round">
      <path
         d="M 0.11546684,18.789872 C 1.171852,8.9471539 8.9466926,1.1721292 18.789385,0.11551105"
         id="Path"
         inkscape:connector-curvature="0" />
      <path
         d="M 4.5677984,18.789374 C 5.5747958,11.391849 11.39243,5.5744368 18.789993,4.567721"
         id="path8"
         inkscape:connector-curvature="0" />
      <path
         d="M 41.97974,18.694686 C 40.923354,8.8519649 33.148508,1.0769391 23.305811,0.02032579"
         id="path10"
         inkscape:connector-curvature="0" />
      <path
         d="M 37.527398,18.694189 C 36.5204,11.296664 30.702766,5.4792515 23.305203,4.4725358"
         id="path12"
         inkscape:connector-curvature="0" />
      <path
         d="M 0.11546684,23.210526 C 1.171852,33.053244 8.9466926,40.828269 18.789385,41.884887"
         id="path14"
         inkscape:connector-curvature="0" />
      <path
         d="M 4.5677984,23.211024 C 5.5747958,30.608549 11.39243,36.425961 18.789993,37.432677"
         id="path16"
         inkscape:connector-curvature="0" />
      <path
         d="M 41.97974,23.305712 C 40.923369,33.148446 33.148519,40.923489 23.305811,41.980105"
         id="path18"
         inkscape:connector-curvature="0" />
      <path
         d="M 37.527398,23.306209 C 36.5204,30.703734 30.702766,36.521146 23.305203,37.527862"
         id="path20"
         inkscape:connector-curvature="0" />
      <path
         d="m 15.561608,27.032891 c -1.180795,-1.372935 -1.48756,-3.29391 -0.793082,-4.966312 0.280722,-0.481655 0.602887,-0.937929 0.962839,-1.363641 0.340121,-0.456479 0.604891,-0.964515 0.78424,-1.504782 0.298516,-0.833696 0.32368,-1.740813 0.07184,-2.589776 -0.187165,-0.629853 -0.541736,-1.197114 -1.025916,-1.641315"
         id="path22"
         inkscape:connector-curvature="0" />
      <path
         d="m 21.087924,27.032891 c -1.180795,-1.372935 -1.48756,-3.29391 -0.793082,-4.966312 0.280721,-0.481655 0.602887,-0.937929 0.962839,-1.363641 0.34012,-0.456479 0.604891,-0.964515 0.784239,-1.504782 0.298517,-0.833696 0.323681,-1.740813 0.07184,-2.589776 -0.187166,-0.629853 -0.541736,-1.197114 -1.025917,-1.641315"
         id="path24"
         inkscape:connector-curvature="0" />
      <path
         d="m 26.432368,27.032891 c -1.180771,-1.37294 -1.487518,-3.293902 -0.793037,-4.96629 0.280721,-0.481655 0.602887,-0.937928 0.962839,-1.363641 0.34012,-0.456479 0.60489,-0.964514 0.784239,-1.504782 0.298517,-0.833696 0.323681,-1.740813 0.07184,-2.589775 -0.187166,-0.629854 -0.541736,-1.197114 -1.025917,-1.641316"
         id="path26"
         inkscape:connector-curvature="0" />
    </g>
  </g>
</svg>
