<?xml version="1.0" encoding="UTF-8" standalone="no"?>
<svg
   xmlns:dc="http://purl.org/dc/elements/1.1/"
   xmlns:cc="http://creativecommons.org/ns#"
   xmlns:rdf="http://www.w3.org/1999/02/22-rdf-syntax-ns#"
   xmlns:svg="http://www.w3.org/2000/svg"
   xmlns="http://www.w3.org/2000/svg"
   xmlns:sodipodi="http://sodipodi.sourceforge.net/DTD/sodipodi-0.dtd"
   xmlns:inkscape="http://www.inkscape.org/namespaces/inkscape"
   width="98"
   height="93"
   viewBox="0 0 98 93"
   version="1.1"
   id="svg15"
   sodipodi:docname="new_water_sensor.svg"
   inkscape:version="0.92.2 (5c3e80d, 2017-08-06)">
  <metadata
     id="metadata21">
    <rdf:RDF>
      <cc:Work
         rdf:about="">
        <dc:format>image/svg+xml</dc:format>
        <dc:type
           rdf:resource="http://purl.org/dc/dcmitype/StillImage" />
        <dc:title>new_water_sensor</dc:title>
      </cc:Work>
    </rdf:RDF>
  </metadata>
  <defs
     id="defs19" />
  <sodipodi:namedview
     pagecolor="#ffffff"
     bordercolor="#666666"
     borderopacity="1"
     objecttolerance="10"
     gridtolerance="10"
     guidetolerance="10"
     inkscape:pageopacity="0"
     inkscape:pageshadow="2"
     inkscape:window-width="640"
     inkscape:window-height="820"
     id="namedview17"
     showgrid="false"
     inkscape:zoom="2.6222222"
     inkscape:cx="45"
     inkscape:cy="45"
     inkscape:window-x="1679"
     inkscape:window-y="49"
     inkscape:window-maximized="0"
     inkscape:current-layer="svg15" />
  <!-- Generator: Sketch 52.2 (67145) - http://www.bohemiancoding.com/sketch -->
  <title
     id="title2">new_water_sensor</title>
  <desc
     id="desc4">Created with Sketch.</desc>
  <g
     id="new_water_sensor"
     style="fill:none;fill-rule:evenodd;stroke:none;stroke-width:1"
     transform="matrix(1.1423324,0,0,1.1423324,-1.7845636,-4.5049025)">
    <g
       id="noun_Water_1817275"
       transform="translate(33,20)"
       style="fill:#a5c0d3">
      <g
         id="Group">
        <path
           d="M 24,22.228902 C 24,29.277843 18.39931,35 11.5,35 4.6006897,35 -1,29.277843 -1,22.228902 -1,18.202522 1.3424879,14.757008 3.6779856,11.319429 v -0.0032 C 6.5726979,7.0597508 8.9633404,2.4866279 11.5,-2 c 2.53666,4.4866279 4.927302,9.0597508 7.822014,13.316254 v 0.0032 C 21.657512,14.757008 24,18.202522 24,22.228902 Z m -1.553374,0 c 0,-3.538358 -2.201908,-6.778348 -4.396825,-10.008815 l -0.0016,7.94e-4 C 15.589257,8.6047569 13.662297,4.9854591 11.5,1.1590495 9.3377035,4.9854591 7.4107431,8.6047569 4.9517522,12.220881 l -0.00155,-7.94e-4 c -2.1949173,3.230467 -4.39682487,6.470457 -4.39682487,10.008815 0,6.181611 4.89623457,11.184035 10.94662567,11.184035 6.050391,0 10.946626,-5.002424 10.946626,-11.184035 z"
           id="Shape"
           inkscape:connector-curvature="0"
           style="fill-rule:nonzero;stroke:#a5c0d3;stroke-width:0.99000001" />
        <path
           d="m 5.37264,20.97144 c 0.07344,4.00464 3.0024,7.21872 7.09704,7.23024 0.11232,-0.01368 0.71568,0.1656 0.71568,0.85536 0,0.42192 -0.36576,0.85896 -0.78408,0.8532 -4.77072,0.22536 -8.87688,-4.31856 -8.74008,-8.9496 0.00936,-0.4392 0.42336,-0.79848 0.85536,-0.79848 0.43416,0 0.86328,0.37296 0.85608,0.80928 z"
           id="Path"
           inkscape:connector-curvature="0" />
      </g>
    </g>
    <path
       d="M 44.78,84.38 C 22.82,84.38 5,66.56 5,44.69 5,22.82 22.82,5 44.78,5 c 21.96,0 39.69,17.82 39.69,39.69 0,21.87 -17.82,39.69 -39.69,39.69 z m 0,-76.68 C 24.35,7.7 7.7,24.26 7.7,44.69 7.7,65.12 24.26,81.68 44.69,81.68 65.12,81.68 81.77,65.12 81.77,44.69 81.77,24.26 65.12,7.7 44.78,7.7 Z"
       id="path10"
       inkscape:connector-curvature="0"
       style="fill:#a5c0d3;fill-rule:nonzero;stroke:#a5c0d3" />
    <path
       d="m 70.660533,69.3 c -3.523729,0 -6.759807,-1.306098 -8.62954,-3.457317 C 60.161259,67.993902 56.925182,69.3 53.401453,69.3 49.805811,69.3 46.569734,67.917073 44.7,65.765854 42.830266,67.993902 39.522276,69.3 35.998547,69.3 32.474818,69.3 29.166828,67.917073 27.297094,65.765854 25.427361,67.917073 22.191283,69.3 18.595642,69.3 17.373123,69.3 16.150605,69.146342 15,68.839024 l 0.50339,-2.228048 c 1.006779,0.230487 2.013559,0.384146 3.020339,0.384146 3.30799,0 6.400242,-1.382927 7.62276,-3.457317 L 26.43414,63 h 1.51017 l 0.287651,0.537805 c 1.222518,2.07439 4.31477,3.457317 7.62276,3.457317 3.307991,0 6.400243,-1.382927 7.622761,-3.457317 L 43.765133,63 h 1.582082 l 0.287652,0.537805 c 1.222518,2.07439 4.31477,3.457317 7.62276,3.457317 3.30799,0 6.400242,-1.382927 7.62276,-3.457317 L 61.239952,63 h 1.366343 l 0.287652,0.537805 c 1.222518,2.07439 4.31477,3.457317 7.62276,3.457317 1.150605,0 2.229298,-0.153659 3.30799,-0.460976 L 74.4,68.762195 C 73.321308,69.069512 72.026876,69.3 70.660533,69.3 Z"
       id="path12"
       inkscape:connector-curvature="0"
       style="fill:#a5c0d3" />
  </g>
</svg>
