<?xml version="1.0" encoding="UTF-8" standalone="no"?>
<svg
   xmlns:dc="http://purl.org/dc/elements/1.1/"
   xmlns:cc="http://creativecommons.org/ns#"
   xmlns:rdf="http://www.w3.org/1999/02/22-rdf-syntax-ns#"
   xmlns:svg="http://www.w3.org/2000/svg"
   xmlns="http://www.w3.org/2000/svg"
   xmlns:sodipodi="http://sodipodi.sourceforge.net/DTD/sodipodi-0.dtd"
   xmlns:inkscape="http://www.inkscape.org/namespaces/inkscape"
   width="98"
   height="93"
   viewBox="0 0 98 93"
   version="1.1"
   id="svg17"
   sodipodi:docname="new_generic_symbol.svg"
   inkscape:version="0.92.2 (5c3e80d, 2017-08-06)">
  <metadata
     id="metadata23">
    <rdf:RDF>
      <cc:Work
         rdf:about="">
        <dc:format>image/svg+xml</dc:format>
        <dc:type
           rdf:resource="http://purl.org/dc/dcmitype/StillImage" />
        <dc:title>new_generic_symbol</dc:title>
      </cc:Work>
    </rdf:RDF>
  </metadata>
  <defs
     id="defs21" />
  <sodipodi:namedview
     pagecolor="#ffffff"
     bordercolor="#666666"
     borderopacity="1"
     objecttolerance="10"
     gridtolerance="10"
     guidetolerance="10"
     inkscape:pageopacity="0"
     inkscape:pageshadow="2"
     inkscape:window-width="640"
     inkscape:window-height="839"
     id="namedview19"
     showgrid="false"
     inkscape:zoom="2.6222222"
     inkscape:cx="45"
     inkscape:cy="45"
     inkscape:window-x="1663"
     inkscape:window-y="0"
     inkscape:window-maximized="0"
     inkscape:current-layer="svg17" />
  <!-- Generator: Sketch 52.2 (67145) - http://www.bohemiancoding.com/sketch -->
  <title
     id="title2">new_generic_symbol</title>
  <desc
     id="desc4">Created with Sketch.</desc>
  <g
     id="new_generic_symbol"
     style="fill:none;fill-rule:evenodd;stroke:none;stroke-width:1"
     transform="matrix(1.1422741,0,0,1.1422741,-1.402945,-4.4999481)">
    <g
       id="noun_sensor_381034"
       transform="translate(14,22)"
       style="fill:#a5c0d3;fill-rule:nonzero">
      <path
         d="m 13.2,44.6 c -0.5,0.5 -1.2,0.8 -1.9,0.8 -0.7,0 -1.4,-0.3 -1.9,-0.8 -11.9,-11.9 -11.9,-31.3 0,-43.3 1.1,-1.1 2.8,-1.1 3.9,0 1.1,1.1 1.1,2.8 0,3.9 -9.8,9.8 -9.8,25.7 0,35.5 1,1.1 1,2.9 -0.1,3.9 z"
         id="Path"
         inkscape:connector-curvature="0" />
      <path
         d="m 20.3,33.7 c 1.1,1.1 1.1,2.8 0,3.9 -0.5,0.5 -1.2,0.8 -1.9,0.8 -0.7,0 -1.4,-0.3 -1.9,-0.8 -8,-8 -8,-21.1 0,-29.2 1.1,-1.1 2.8,-1.1 3.9,0 1.1,1.1 1.1,2.8 0,3.9 -6,5.9 -6,15.5 -0.1,21.4 z"
         id="path7"
         inkscape:connector-curvature="0" />
      <path
         d="m 43.6,38.4 c -0.7,0 -1.4,-0.3 -1.9,-0.8 -1.1,-1.1 -1.1,-2.8 0,-3.9 5.9,-5.9 5.9,-15.5 0,-21.4 -1.1,-1.1 -1.1,-2.8 0,-3.9 1.1,-1.1 2.8,-1.1 3.9,0 8,8 8,21.1 0,29.2 -0.5,0.5 -1.3,0.8 -2,0.8 z"
         id="path9"
         inkscape:connector-curvature="0" />
      <path
         d="m 52.6,44.6 c -0.5,0.5 -1.2,0.8 -1.9,0.8 -0.7,0 -1.4,-0.3 -1.9,-0.8 -1.1,-1.1 -1.1,-2.8 0,-3.9 9.8,-9.8 9.8,-25.7 0,-35.5 -1.1,-1.1 -1.1,-2.8 0,-3.9 1.1,-1.1 2.8,-1.1 3.9,0 11.9,12 11.9,31.4 -0.1,43.3 z"
         id="path11"
         inkscape:connector-curvature="0" />
    </g>
    <path
       d="m 45,40 c -2.7575,0 -5,2.2425 -5,5 0,2.7575 2.2425,5 5,5 2.7575,0 5,-2.2425 5,-5 0,-2.7575 -2.2425,-5 -5,-5 z m 0,7.25 c -1.242,0 -2.25,-1.01025 -2.25,-2.25 0,-1.23975 1.008,-2.25 2.25,-2.25 1.242,0 2.25,1.01025 2.25,2.25 0,1.23975 -1.008,2.25 -2.25,2.25 z"
       id="Shape-Copy-7"
       inkscape:connector-curvature="0"
       style="fill:#a5c0d3;fill-rule:nonzero" />
    <path
       d="M 44.78,84.38 C 22.82,84.38 5,66.56 5,44.69 5,22.82 22.82,5 44.78,5 c 21.96,0 39.69,17.82 39.69,39.69 0,21.87 -17.82,39.69 -39.69,39.69 z m 0,-76.68 C 24.35,7.7 7.7,24.26 7.7,44.69 7.7,65.12 24.26,81.68 44.69,81.68 65.12,81.68 81.77,65.12 81.77,44.69 81.77,24.26 65.12,7.7 44.78,7.7 Z"
       id="Shape-Copy-6"
       inkscape:connector-curvature="0"
       style="fill:#a5c0d3;fill-rule:nonzero;stroke:#a5c0d3" />
  </g>
</svg>
