<?xml version="1.0" encoding="UTF-8" standalone="no"?>
<svg
   xmlns:dc="http://purl.org/dc/elements/1.1/"
   xmlns:cc="http://creativecommons.org/ns#"
   xmlns:rdf="http://www.w3.org/1999/02/22-rdf-syntax-ns#"
   xmlns:svg="http://www.w3.org/2000/svg"
   xmlns="http://www.w3.org/2000/svg"
   xmlns:sodipodi="http://sodipodi.sourceforge.net/DTD/sodipodi-0.dtd"
   xmlns:inkscape="http://www.inkscape.org/namespaces/inkscape"
   width="98"
   height="93"
   viewBox="0 0 98 93"
   version="1.1"
   id="svg18"
   sodipodi:docname="new_motion_sensor.svg"
   inkscape:version="0.92.2 (5c3e80d, 2017-08-06)">
  <metadata
     id="metadata24">
    <rdf:RDF>
      <cc:Work
         rdf:about="">
        <dc:format>image/svg+xml</dc:format>
        <dc:type
           rdf:resource="http://purl.org/dc/dcmitype/StillImage" />
        <dc:title>new_motion_sensor</dc:title>
      </cc:Work>
    </rdf:RDF>
  </metadata>
  <defs
     id="defs22" />
  <sodipodi:namedview
     pagecolor="#ffffff"
     bordercolor="#666666"
     borderopacity="1"
     objecttolerance="10"
     gridtolerance="10"
     guidetolerance="10"
     inkscape:pageopacity="0"
     inkscape:pageshadow="2"
     inkscape:window-width="640"
     inkscape:window-height="883"
     id="namedview20"
     showgrid="false"
     inkscape:zoom="2.6222222"
     inkscape:cx="45"
     inkscape:cy="45"
     inkscape:window-x="1661"
     inkscape:window-y="127"
     inkscape:window-maximized="0"
     inkscape:current-layer="svg18" />
  <!-- Generator: Sketch 52.2 (67145) - http://www.bohemiancoding.com/sketch -->
  <title
     id="title2">new_motion_sensor</title>
  <desc
     id="desc4">Created with Sketch.</desc>
  <g
     id="new_motion_sensor"
     style="fill:none;fill-rule:evenodd;stroke:none;stroke-width:1"
     transform="matrix(1.0753844,0,0,1.0753844,3.6853784,-1.7270397)">
    <g
       id="noun_wave_127952"
       transform="translate(57,17)"
       style="fill:#a5c0d3">
      <g
         id="Group">
        <path
           d="m 4.1992,14.4992 c -0.9176,-0.9176 -2.404,-0.9176 -3.3216,0 -0.9176,0.9176 -0.9176,2.404 0,3.3216 4.5792,4.5792 4.5792,12.0288 0,16.608 -0.9176,0.9176 -0.9176,2.404 0,3.3216 0.9176,0.9176 2.404,0.9176 3.3216,0 6.4104,-6.4104 6.4104,-16.8408 0,-23.2512 z"
           id="Path"
           inkscape:connector-curvature="0" />
        <path
           d="m 10.8424,7.856 c -0.9176,-0.9176 -2.404,-0.9176 -3.3216,0 -0.9176,0.9176 -0.9176,2.404 0,3.3216 8.2424,8.2424 8.2424,21.6528 0,29.8944 -0.9176,0.9176 -0.9176,2.404 0,3.3216 0.9176,0.9176 2.404,0.9176 3.3216,0 10.0736,-10.0736 10.0736,-26.464 0,-36.5376 z"
           id="path7"
           inkscape:connector-curvature="0" />
        <path
           d="m 17.4856,1.2128 c -0.9176,-0.9176 -2.404,-0.9176 -3.3216,0 -0.9176,0.9176 -0.9176,2.404 0,3.3216 11.9048,11.9048 11.9048,31.276 0,43.1808 -0.9176,0.9176 -0.9176,2.404 0,3.3216 0.9176,0.9176 2.404,0.9176 3.3216,0 13.7368,-13.7368 13.7368,-36.0872 0,-49.824 z"
           id="path9"
           inkscape:connector-curvature="0" />
      </g>
    </g>
    <rect
       id="Rectangle-Copy-5"
       x="5.5"
       y="3.5"
       width="44"
       height="83"
       rx="4"
       style="fill-rule:nonzero;stroke:#a5c0d3;stroke-width:3;stroke-linecap:round;stroke-linejoin:round" />
    <rect
       id="rect14"
       x="6"
       y="4"
       width="43"
       height="46"
       style="fill-rule:nonzero;stroke:#a5c0d3;stroke-width:2;stroke-linecap:round;stroke-linejoin:round" />
    <path
       d="m 28,33 c -2.7575,0 -5,2.2425 -5,5 0,2.7575 2.2425,5 5,5 2.7575,0 5,-2.2425 5,-5 0,-2.7575 -2.2425,-5 -5,-5 z m 0,7.25 c -1.242,0 -2.25,-1.01025 -2.25,-2.25 0,-1.23975 1.008,-2.25 2.25,-2.25 1.242,0 2.25,1.01025 2.25,2.25 0,1.23975 -1.008,2.25 -2.25,2.25 z"
       id="Shape-Copy-2"
       inkscape:connector-curvature="0"
       style="fill:#a5c0d3;fill-rule:nonzero" />
  </g>
</svg>
