<?xml version="1.0" encoding="UTF-8" standalone="no"?>
<svg
   xmlns:dc="http://purl.org/dc/elements/1.1/"
   xmlns:cc="http://creativecommons.org/ns#"
   xmlns:rdf="http://www.w3.org/1999/02/22-rdf-syntax-ns#"
   xmlns:svg="http://www.w3.org/2000/svg"
   xmlns="http://www.w3.org/2000/svg"
   xmlns:sodipodi="http://sodipodi.sourceforge.net/DTD/sodipodi-0.dtd"
   xmlns:inkscape="http://www.inkscape.org/namespaces/inkscape"
   width="98"
   height="93"
   viewBox="0 0 98 93"
   version="1.1"
   id="svg12"
   sodipodi:docname="new_help.svg"
   inkscape:version="0.92.2 (5c3e80d, 2017-08-06)">
  <metadata
     id="metadata18">
    <rdf:RDF>
      <cc:Work
         rdf:about="">
        <dc:format>image/svg+xml</dc:format>
        <dc:type
           rdf:resource="http://purl.org/dc/dcmitype/StillImage" />
        <dc:title>new_help</dc:title>
      </cc:Work>
    </rdf:RDF>
  </metadata>
  <defs
     id="defs16" />
  <sodipodi:namedview
     pagecolor="#ffffff"
     bordercolor="#666666"
     borderopacity="1"
     objecttolerance="10"
     gridtolerance="10"
     guidetolerance="10"
     inkscape:pageopacity="0"
     inkscape:pageshadow="2"
     inkscape:window-width="640"
     inkscape:window-height="807"
     id="namedview14"
     showgrid="false"
     inkscape:zoom="2.6222222"
     inkscape:cx="45"
     inkscape:cy="45"
     inkscape:window-x="1598"
     inkscape:window-y="63"
     inkscape:window-maximized="0"
     inkscape:current-layer="svg12" />
  <!-- Generator: Sketch 52.2 (67145) - http://www.bohemiancoding.com/sketch -->
  <title
     id="title2">new_help</title>
  <desc
     id="desc4">Created with Sketch.</desc>
  <g
     id="new_help"
     style="fill:none;fill-rule:evenodd;stroke:none;stroke-width:1"
     transform="matrix(1.137588,0,0,1.137588,-1.3818578,-4.4835527)">
    <g
       id="noun_help_1887678"
       transform="translate(31,23)"
       style="fill:#a5c0d3;stroke:#a8c2d4">
      <g
         id="Group">
        <path
           d="m 13.37353,34.49955 c -1.104569,0 -2,-0.89543 -2,-2 v -9.25377 c 0,-0.448624 0.178215,-0.878874 0.495441,-1.196099 0.317225,-0.317226 0.747475,-0.495441 1.196099,-0.495441 4.679972,0.06179 8.618382,-3.490284 9.0384,-8.15178 C 22.420108,8.7766797 19.073675,4.706878 14.473895,4.1236682 9.8741161,3.5404584 5.6178759,6.6463108 4.77004,11.20474 4.5882247,12.138185 3.7677693,12.810048 2.8168,12.80423 2.2225537,12.805057 1.6586031,12.542043 1.2773139,12.08625 0.89602482,11.630456 0.73674571,11.028919 0.84251,10.44416 2.0420091,4.0782429 7.8241436,-0.37656768 14.285467,0.0871152 20.74679,0.55079808 25.833571,5.7855929 26.111787,12.257555 26.390004,18.729517 21.771225,24.381534 15.37353,25.398 v 7.10156 c -5e-6,1.104566 -0.895434,1.99999 -2,1.99999 z"
           id="Path"
           inkscape:connector-curvature="0" />
        <circle
           id="Oval"
           cx="13.46582"
           cy="40.08271"
           r="2.5290501" />
      </g>
    </g>
    <path
       d="M 44.78,84.38 C 22.82,84.38 5,66.56 5,44.69 5,22.82 22.82,5 44.78,5 c 21.96,0 39.69,17.82 39.69,39.69 0,21.87 -17.82,39.69 -39.69,39.69 z m 0,-76.68 C 24.35,7.7 7.7,24.26 7.7,44.69 7.7,65.12 24.26,81.68 44.69,81.68 65.12,81.68 81.77,65.12 81.77,44.69 81.77,24.26 65.12,7.7 44.78,7.7 Z"
       id="Shape-Copy-6"
       inkscape:connector-curvature="0"
       style="fill:#a5c0d3;fill-rule:nonzero;stroke:#a5c0d3" />
  </g>
</svg>
